<svg id="Layer_1" data-name="Layer 1" xmlns="http://www.w3.org/2000/svg" viewBox="0 0 81.27 99.25"><title>meltingEarth</title><path d="M81.27,40.39h0a40.6,40.6,0,0,0-81.2-.09L0,40.27C0,55.44-.17,67.75,2.71,67.75c1.23,0,1.88-3.53,2-4.18a1.13,1.13,0,0,1,1.55-1,2,2,0,0,1,.68.59l0.31,0.46a10.84,10.84,0,0,1,1.06,3.45c0.18,7.84.74,13,2.5,13.1,1.16,0,1.79-2.65,2.14-7.07,0.05-.37.38-2.27,1.58-1.43,1.41,1,1.6,4.28,1.63,5.18,0.18,13.36.78,22.32,2.83,22.41,1.89,0.08,2.55-9.1,2.78-22.73a40.34,40.34,0,0,0,12.21,4.13c0.26,6.86.88,11.34,2.4,11.3S38.76,87.86,39,81.34c0,0,.07-18.84.07-18.84a1.16,1.16,0,0,1,1.16-1.16s2-.41,2.18-1.91-2.22-2.5-2.22-2.5A1.16,1.16,0,0,1,39,55.77V48.54a1.16,1.16,0,0,0-1.16-1.16H35.76a4.27,4.27,0,0,1-2.1-.67l-6.24-4.42-0.21-.12C27.08,45.66,26.73,48,25.71,48s-1.43-3.33-1.52-8.11l-2.53-2.53h0c-0.22,9-.27,18.84-1.64,18.83-1.58,0-1.79-12.71-1.8-22.44a1.12,1.12,0,0,1-.07-0.1l-3.38-7a6.12,6.12,0,0,1-.5-2.21L16.85,21c0-.64-3.09-1.58-3.7-1.39L11.79,20A35.48,35.48,0,0,1,37.64,5.26v4.82a2.51,2.51,0,0,0,.95,1.82l2.17,1.53a4.32,4.32,0,0,0,2.11.67h1.72a1.07,1.07,0,0,1,1.16.94,3.09,3.09,0,0,1-.8,1.78l-4.11.89c-0.44.46,1.35,2.56,2,2.57h1.65a1.16,1.16,0,0,1,1.16,1.16l0,2.81a1.79,1.79,0,0,0,1.59,1.36h0.59c0.89,0.07,1.07,1.12,1.07,1.61a1.42,1.42,0,0,1-1.43.94h-5v3.27c-0.51.39-3.27,1.27-3.27,1.91L39,37.9c0,0.64-.25,2.16-1,2.16s-1.09-1.52-1.09-2.16V34.7c-0.16-1.41-4.07-2.66-6-.73a5,5,0,0,0-.46,7L35,44.63a3.85,3.85,0,0,0,2.06.73h7.72a5.63,5.63,0,0,1,2.19.54L57.6,51.38a2.11,2.11,0,0,1,1,1.7v0.35a6.16,6.16,0,0,1-.5,2.21l-3.76,5.91a7.46,7.46,0,0,1-1.15,1.63c-0.62,2.59,0,12-1.74,11.79-1.5-.21-0.81-6.18-1.11-9.1,0,0-7.78,7.22-8.41,7.75v7.54a40.59,40.59,0,0,0,35-22.32c0.29,5.33.86,8.68,2,8.64C81.41,67.41,81.27,55.36,81.27,40.39ZM54.85,18.33a3.28,3.28,0,0,1-.65.35c-0.12,3.26-.76,5.75-1.53,5.75S51.18,21.58,51.12,18a0.89,0.89,0,0,1,0-.12V14.09a1.16,1.16,0,0,0-1.16-1.16H48.26a1.16,1.16,0,0,1-1.16-1.16v-6a35.35,35.35,0,0,1,15,6.62C61.94,12.84,54.85,18.33,54.85,18.33ZM70.31,36.16c0-5,2.64-10.45,2.64-10.45a39.74,39.74,0,0,1,2.45,7,61.38,61.38,0,0,1,1.09,8.46S70.31,49,70.31,36.16Z" style="fill:#010101"/></svg>