<svg xmlns="http://www.w3.org/2000/svg" xmlns:xlink="http://www.w3.org/1999/xlink" version="1.1" x="0px" y="0px" viewBox="0 0 100 125" enable-background="new 0 0 100 100" xml:space="preserve"><g><path fill="none" d="M35.9,38.9c0.2,1.5,0.7,2.6,1.5,3.4c1,0.9,2.3,1.1,3.2,1.2c0.1-1.2-0.2-2.2-0.8-2.9   C38.9,39.5,37.2,39.1,35.9,38.9z"/><path fill="none" d="M59.4,44.2c1.4-0.7,2.3-2.4,2.9-3.8c-1.4,0.1-3.1,0.5-4.1,1.5c-0.7,0.6-1.1,1.5-1.2,2.5   C57.8,44.7,58.6,44.6,59.4,44.2z"/><path fill="none" d="M37.7,56.7c0.7,0.4,1.6,0.8,2.4,0.7c0.5-0.1,1-0.3,1.5-0.7c-0.4-0.3-0.8-0.5-1.4-0.6   C39.5,56,38.6,56.2,37.7,56.7z"/><path fill="none" d="M51.3,31.7c0.5-3.3-1.1-7-2.3-9.1c-1.2,1.9-2.8,5.1-2.5,8.3c0.2,1.9,1,3.5,2.6,4.9   C50.3,34.7,51.1,33.3,51.3,31.7z"/><path fill="#000000" d="M66.3,79.1c-11.4,0-22.9,0-34.3,0c-2.4,0-2.4,3.8,0,3.8c11.4,0,22.9,0,34.3,0   C68.8,82.9,68.8,79.1,66.3,79.1z"/><path fill="#000000" d="M66.3,85.5c-11.4,0-22.9,0-34.3,0c-2.4,0-2.4,3.8,0,3.8c11.4,0,22.9,0,34.3,0   C68.8,89.2,68.8,85.5,66.3,85.5z"/><path fill="#000000" d="M66.3,72.3c-4.6,0-9.4,0-14,0l-1.7,0V50.9l4.8-3.5c2.4,0.8,4.2,0.3,5.3-0.3c3.9-2,5.2-7.7,5.2-8   c0.1-0.4,0-0.9-0.3-1.3c-0.3-0.4-0.7-0.6-1.1-0.7c-0.2,0-5.5-0.6-8.7,2.4c-1.4,1.3-2.2,3-2.3,5.2l-3,2.2v-8.3   c2.1-1.7,3.4-3.9,3.8-6.5c1-6.5-4-13.1-4.2-13.4c-0.3-0.4-0.7-0.6-1.2-0.6c-0.5,0-1,0.2-1.3,0.6c-0.2,0.2-5.2,6.1-4.5,12.5   c0.3,2.9,1.7,5.4,4.1,7.4v9.6l-3.7-3.7c0.3-2.5-0.2-4.6-1.6-6.1c-2.8-3.1-7.9-2.8-8.1-2.7c-0.8,0.1-1.5,0.7-1.5,1.6   c-0.1,3.3,0.8,5.8,2.7,7.5c2.1,1.9,4.8,2,6.1,2l6,6V55h-2.9c-0.7-0.8-1.9-1.8-3.8-2.1c-2.2-0.3-4.5,0.5-6.8,2.5   c-0.3,0.3-0.5,0.7-0.6,1.1s0.1,0.9,0.5,1.2c0.3,0.3,2.9,2.9,6.1,2.9c0.2,0,0.4,0,0.5,0c1.1-0.1,2.7-0.6,4.1-2.4h2.9v14.2   c-5,0-10.1,0-15.2,0c-2.4,0-2.4,3.8,0,3.8c11.4,0,22.9,0,34.3,0C68.8,76.1,68.8,72.3,66.3,72.3z M58.1,41.9c1.1-1,2.8-1.4,4.1-1.5   c-0.6,1.4-1.5,3.1-2.9,3.8c-0.7,0.4-1.5,0.4-2.5,0.2C57.1,43.4,57.5,42.6,58.1,41.9z M37.4,42.3c-0.8-0.8-1.3-1.9-1.5-3.4   c1.3,0.1,2.9,0.6,3.9,1.6c0.6,0.7,0.9,1.7,0.8,2.9C39.7,43.4,38.4,43.2,37.4,42.3z M40.2,57.4c-0.8,0.1-1.7-0.3-2.4-0.7   c0.9-0.5,1.8-0.7,2.5-0.6c0.6,0.1,1,0.3,1.4,0.6C41.2,57.1,40.7,57.3,40.2,57.4z M46.5,30.9c-0.3-3.2,1.2-6.3,2.5-8.3   c1.2,2.1,2.9,5.8,2.3,9.1c-0.3,1.6-1,3-2.2,4.1C47.6,34.4,46.7,32.7,46.5,30.9z"/><path fill="#000000" d="M49.2,97.1c4.8,0,8.8-2.6,8.8-5.7H40.4C40.4,94.6,44.4,97.1,49.2,97.1z"/><path fill="#000000" d="M61.4,3.7C49.6-0.5,32.2,1.6,24.2,12c-7.1,9.1-6,22-3.8,32.7c1.8,8.5,4.7,17,8.7,24.8   c1.1,2.2,4.3,0.2,3.2-1.8c-6.7-13.3-13-31.8-8.6-46.7C27.6,8.2,41.5,4.6,53.5,5.7c12.7,1.3,20,10.5,21.3,22.8   c1.4,13.2-2.3,27.4-8.4,39c-1.1,2.2,2.2,4,3.2,1.8C79.3,50.9,87.6,13.1,61.4,3.7z"/></g><text x="0" y="115" fill="#000000" font-size="5px" font-weight="bold" font-family="'Helvetica Neue', Helvetica, Arial-Unicode, Arial, Sans-serif">Created by Alex Vaughn</text><text x="0" y="120" fill="#000000" font-size="5px" font-weight="bold" font-family="'Helvetica Neue', Helvetica, Arial-Unicode, Arial, Sans-serif">from the Noun Project</text></svg>