<svg xmlns="http://www.w3.org/2000/svg" xmlns:xlink="http://www.w3.org/1999/xlink" version="1.1" x="0px" y="0px" viewBox="0 0 100 125" enable-background="new 0 0 100 100" xml:space="preserve"><path d="M86.684,29.011c-5.391-4.704-10.781-9.408-16.172-14.111c-0.545-0.476-1.236-0.476-1.781,0  c-5.392,4.703-10.783,9.407-16.174,14.111c-1.227,1.07,0.563,2.846,1.782,1.782c5.095-4.445,10.188-8.89,15.282-13.335  c5.094,4.445,10.188,8.89,15.281,13.335C86.121,31.856,87.91,30.081,86.684,29.011z"/><path d="M82.988,46.109V31.75L69.514,20.13L56.252,31.75v13.262c-5.861,0.514-11.781,1.545-17.704,3.172  C22.577,52.568,9.45,52.574,0,51.339V100h100V50.254C94.518,48.484,88.827,47.076,82.988,46.109z M40.596,88.74  c-0.091,0.523-0.146,1.031-0.277,1.505c-0.258,0.948-0.606,1.786-1.012,2.5c-0.801,1.429-1.755,2.373-2.476,2.946  c-0.735,0.566-1.235,0.783-1.235,0.783s0.045-0.541,0.07-1.404c0.033-0.856,0.059-2.034-0.029-3.297  c-0.043-0.629-0.132-1.277-0.248-1.916c-0.066-0.305-0.14-0.625-0.214-0.944c-0.112-0.31-0.188-0.61-0.284-0.909  c-0.152-0.289-0.236-0.587-0.367-0.871c-0.166-0.273-0.274-0.561-0.442-0.835c-0.187-0.264-0.326-0.543-0.511-0.812  c-0.1-0.131-0.204-0.264-0.299-0.398l-0.381-0.533c-0.266-0.375-0.537-0.754-0.789-1.141c-0.297-0.49-0.603-1.059-0.877-1.587  c-0.232-0.538-0.426-1.062-0.601-1.597c-0.14-0.565-0.313-1.094-0.373-1.668c-0.155-1.117-0.155-2.23,0.051-3.258  c0.079-0.512,0.251-0.996,0.396-1.449c0.193-0.444,0.365-0.873,0.594-1.25c0.454-0.76,0.951-1.371,1.471-1.828  c0.506-0.461,1.006-0.778,1.432-0.996c0.423-0.215,0.787-0.327,1.029-0.393c0.248-0.062,0.375-0.08,0.375-0.08  s-0.041,0.127-0.121,0.36c-0.094,0.213-0.172,0.567-0.271,0.964c-0.09,0.403-0.187,0.876-0.231,1.401  c-0.062,0.517-0.059,1.087-0.021,1.657c0.051,0.572,0.14,1.146,0.314,1.718c0.049,0.144,0.082,0.284,0.115,0.424  c0.057,0.142,0.11,0.28,0.168,0.427c0.094,0.276,0.235,0.562,0.358,0.844c0.146,0.281,0.294,0.565,0.442,0.856  c0.187,0.278,0.366,0.577,0.531,0.86c0.195,0.255,0.348,0.484,0.538,0.783c0.282,0.357,0.554,0.734,0.831,1.111l0.023,0.035  c-0.041-0.053-0.064-0.082-0.078-0.1c0.003,0.004,0.004,0.008-0.006-0.004l0.01,0.013l0.016,0.022l0.062,0.094l0.125,0.187  l0.255,0.365l0.483,0.747c0.305,0.513,0.535,1.08,0.777,1.617c0.223,0.552,0.352,1.144,0.501,1.707  c0.121,0.572,0.177,1.15,0.224,1.705C40.646,87.666,40.648,88.215,40.596,88.74z M55.26,88.74c-0.091,0.523-0.146,1.031-0.277,1.505  c-0.258,0.948-0.605,1.786-1.01,2.5c-0.802,1.429-1.756,2.373-2.478,2.946c-0.735,0.566-1.235,0.783-1.235,0.783  s0.045-0.541,0.069-1.404c0.032-0.856,0.06-2.034-0.03-3.297c-0.042-0.629-0.13-1.277-0.247-1.916  c-0.067-0.305-0.14-0.625-0.214-0.944c-0.111-0.31-0.188-0.61-0.283-0.909c-0.154-0.289-0.238-0.587-0.369-0.871  c-0.164-0.273-0.274-0.561-0.441-0.835c-0.186-0.264-0.326-0.543-0.51-0.812c-0.101-0.131-0.205-0.264-0.301-0.398l-0.381-0.533  c-0.265-0.375-0.535-0.754-0.787-1.141c-0.299-0.49-0.604-1.059-0.877-1.587c-0.234-0.538-0.427-1.062-0.602-1.597  c-0.141-0.565-0.314-1.094-0.372-1.668c-0.156-1.117-0.156-2.23,0.051-3.258c0.079-0.512,0.251-0.996,0.396-1.449  c0.193-0.444,0.365-0.873,0.594-1.25c0.454-0.76,0.951-1.371,1.47-1.828c0.507-0.461,1.005-0.778,1.431-0.996  c0.424-0.215,0.787-0.327,1.029-0.393c0.249-0.062,0.375-0.08,0.375-0.08s-0.039,0.127-0.121,0.36  c-0.094,0.213-0.173,0.567-0.271,0.964c-0.091,0.403-0.187,0.876-0.231,1.401c-0.062,0.517-0.059,1.087-0.021,1.657  c0.051,0.572,0.14,1.146,0.314,1.718c0.047,0.144,0.082,0.284,0.115,0.424c0.057,0.142,0.109,0.28,0.168,0.427  c0.092,0.276,0.234,0.562,0.357,0.844c0.146,0.281,0.296,0.565,0.443,0.856c0.187,0.278,0.365,0.577,0.53,0.86  c0.196,0.255,0.347,0.484,0.538,0.783c0.281,0.357,0.555,0.734,0.83,1.111l0.023,0.035c-0.041-0.053-0.063-0.082-0.078-0.1  c0.004,0.004,0.004,0.006-0.006-0.004l0.01,0.013l0.017,0.022l0.062,0.094l0.127,0.187l0.254,0.365l0.484,0.747  c0.305,0.513,0.534,1.08,0.776,1.617c0.222,0.552,0.353,1.144,0.502,1.707c0.12,0.572,0.176,1.15,0.224,1.705  C55.311,87.666,55.312,88.215,55.26,88.74z M60.398,57.537c0-1.301,1.057-2.363,2.352-2.381c0-4.836,0-9.672,0-14.509  c0-1.652,2.521-1.652,2.521,0c0,4.837,0,9.673,0,14.509c1.295,0.018,2.352,1.08,2.352,2.381v2.462c0,1.31-1.071,2.381-2.381,2.381  h-2.463c-1.309,0-2.381-1.071-2.381-2.381V57.537L60.398,57.537z M69.793,88.74c-0.09,0.523-0.146,1.031-0.277,1.505  c-0.258,0.948-0.604,1.786-1.01,2.5c-0.801,1.429-1.756,2.373-2.477,2.946c-0.736,0.566-1.236,0.783-1.236,0.783  s0.045-0.541,0.07-1.404c0.033-0.856,0.059-2.034-0.029-3.297c-0.043-0.629-0.131-1.277-0.248-1.916  c-0.066-0.305-0.139-0.625-0.214-0.944c-0.112-0.31-0.188-0.61-0.284-0.909c-0.152-0.289-0.236-0.587-0.367-0.871  c-0.166-0.273-0.275-0.561-0.441-0.835c-0.188-0.264-0.325-0.543-0.51-0.812c-0.102-0.131-0.205-0.264-0.301-0.398l-0.382-0.533  c-0.265-0.375-0.536-0.754-0.788-1.141c-0.298-0.49-0.604-1.059-0.877-1.587c-0.232-0.538-0.427-1.062-0.602-1.597  c-0.139-0.565-0.314-1.094-0.372-1.668c-0.155-1.117-0.155-2.23,0.052-3.258c0.078-0.512,0.251-0.996,0.396-1.449  c0.191-0.444,0.365-0.873,0.592-1.25c0.455-0.76,0.951-1.371,1.472-1.828c0.507-0.461,1.006-0.778,1.433-0.996  c0.422-0.215,0.785-0.327,1.027-0.393c0.249-0.062,0.374-0.08,0.374-0.08s-0.039,0.127-0.121,0.36  c-0.093,0.213-0.172,0.567-0.271,0.964c-0.09,0.403-0.186,0.876-0.231,1.401c-0.062,0.517-0.06,1.087-0.021,1.657  c0.052,0.572,0.141,1.146,0.313,1.718c0.05,0.144,0.082,0.284,0.116,0.424c0.057,0.142,0.109,0.28,0.168,0.427  c0.093,0.276,0.234,0.562,0.357,0.844c0.146,0.281,0.295,0.565,0.443,0.856c0.188,0.278,0.365,0.577,0.531,0.86  c0.195,0.255,0.346,0.484,0.537,0.783c0.281,0.357,0.555,0.734,0.831,1.111l0.022,0.035c-0.041-0.053-0.062-0.082-0.076-0.1  c0.002,0.004,0.002,0.006-0.008-0.004l0.01,0.013l0.017,0.022l0.063,0.094l0.125,0.187l0.254,0.365l0.483,0.747  c0.306,0.513,0.535,1.08,0.777,1.617c0.223,0.552,0.352,1.144,0.502,1.707c0.12,0.572,0.176,1.15,0.223,1.705  C69.844,87.666,69.848,88.215,69.793,88.74z M78.262,39.638v5.167v0.623c-2.146-0.264-4.312-0.465-6.492-0.601v-0.022v-5.167v-1.192  c0-1.859,1.461-3.381,3.246-3.381s3.246,1.521,3.246,3.381V39.638z"/><text x="0" y="115" fill="#000000" font-size="5px" font-weight="bold" font-family="'Helvetica Neue', Helvetica, Arial-Unicode, Arial, Sans-serif">Created by Ivan</text><text x="0" y="120" fill="#000000" font-size="5px" font-weight="bold" font-family="'Helvetica Neue', Helvetica, Arial-Unicode, Arial, Sans-serif">from the Noun Project</text></svg>