<?xml version="1.0" encoding="utf-8"?><!DOCTYPE svg PUBLIC "-//W3C//DTD SVG 1.1//EN" "http://www.w3.org/Graphics/SVG/1.1/DTD/svg11.dtd"><svg version="1.1" xmlns="http://www.w3.org/2000/svg" xmlns:xlink="http://www.w3.org/1999/xlink" x="0px" y="0px" viewBox="0 0 71.113 125" enable-background="new 0 0 71.113 100" xml:space="preserve"><path fill="#010101" d="M15.419,35.679c0,0-20.138-43.46,55.692-34.449c0,0,0.954,58.945-40.657,46.886
	c0,0-6.422,4.963-10.216,11.384c0,0,7.333-0.633,17.655,0.821c0,0-27.138,15.434-35.262,39.679l-1.522-0.067
	c0,0,7.604-20.059,16.556-31.538c0,0-5.166-0.324-17.665,1.686c0,0,13.671-30.349,49.426-52.905
	C49.426,17.175,37.894,16.008,15.419,35.679z"/><text x="0" y="115" fill="#000000" font-size="5px" font-weight="bold" font-family="'Helvetica Neue', Helvetica, Arial-Unicode, Arial, Sans-serif">Created by Jens Windolf</text><text x="0" y="120" fill="#000000" font-size="5px" font-weight="bold" font-family="'Helvetica Neue', Helvetica, Arial-Unicode, Arial, Sans-serif">from the Noun Project</text></svg>