<svg xmlns="http://www.w3.org/2000/svg" xmlns:xlink="http://www.w3.org/1999/xlink" version="1.1" x="0px" y="0px" viewBox="0 0 96 120" enable-background="new 0 0 96 96" xml:space="preserve"><g><g><path d="M48,22c-14.336,0-26,11.664-26,26s11.664,26,26,26s26-11.664,26-26S62.336,22,48,22z M48,70c-12.131,0-22-9.869-22-22    s9.869-22,22-22s22,9.869,22,22S60.131,70,48,70z"/><path d="M48,18c1.104,0,2-0.896,2-2V6c0-1.104-0.896-2-2-2s-2,0.896-2,2v10C46,17.104,46.896,18,48,18z"/><path d="M48,78c-1.104,0-2,0.896-2,2v10c0,1.104,0.896,2,2,2s2-0.896,2-2V80C50,78.896,49.104,78,48,78z"/><path d="M23.958,26.787c0.39,0.391,0.902,0.586,1.414,0.586s1.024-0.195,1.414-0.586c0.781-0.781,0.781-2.047,0-2.828    l-7.071-7.071c-0.78-0.781-2.048-0.781-2.828,0c-0.781,0.781-0.781,2.047,0,2.828L23.958,26.787z"/><path d="M72.041,69.213c-0.781-0.781-2.047-0.781-2.828,0s-0.781,2.047,0,2.828l7.071,7.071c0.391,0.391,0.902,0.586,1.414,0.586    s1.023-0.195,1.414-0.586c0.781-0.781,0.781-2.047,0-2.828L72.041,69.213z"/><path d="M18,48c0-1.104-0.896-2-2-2H6c-1.104,0-2,0.896-2,2s0.896,2,2,2h10C17.104,50,18,49.104,18,48z"/><path d="M90,46H80c-1.104,0-2,0.896-2,2s0.896,2,2,2h10c1.104,0,2-0.896,2-2S91.104,46,90,46z"/><path d="M23.958,69.213l-7.071,7.071c-0.781,0.781-0.781,2.047,0,2.828c0.391,0.391,0.902,0.586,1.414,0.586    s1.024-0.195,1.414-0.586l7.071-7.071c0.781-0.781,0.781-2.047,0-2.828S24.739,68.432,23.958,69.213z"/><path d="M70.627,27.373c0.512,0,1.023-0.195,1.414-0.586l7.071-7.071c0.781-0.781,0.781-2.047,0-2.828    c-0.781-0.781-2.047-0.781-2.828,0l-7.071,7.071c-0.781,0.781-0.781,2.047,0,2.828C69.604,27.177,70.115,27.373,70.627,27.373z"/></g></g><text x="0" y="111" fill="#000000" font-size="5px" font-weight="bold" font-family="'Helvetica Neue', Helvetica, Arial-Unicode, Arial, Sans-serif">Created by Yorlmar Campos</text><text x="0" y="116" fill="#000000" font-size="5px" font-weight="bold" font-family="'Helvetica Neue', Helvetica, Arial-Unicode, Arial, Sans-serif">from the Noun Project</text></svg>