<svg xmlns="http://www.w3.org/2000/svg" xmlns:xlink="http://www.w3.org/1999/xlink" version="1.1" x="0px" y="0px" viewBox="0 0 96 120" enable-background="new 0 0 96 96" xml:space="preserve"><g><g><path d="M84,88H50V60.828l5.414-5.414c0.781-0.781,0.781-2.047,0-2.828c-0.78-0.781-2.048-0.781-2.828,0L50,55.172V42.828    l11.414-11.414c0.781-0.781,0.781-2.047,0-2.828c-0.78-0.781-2.048-0.781-2.828,0L50,37.172V24c0-1.104-0.896-2-2-2s-2,0.896-2,2    v25.172l-8.586-8.586c-0.78-0.781-2.048-0.781-2.828,0c-0.781,0.781-0.781,2.047,0,2.828L46,54.828V88H12c-1.104,0-2,0.896-2,2    s0.896,2,2,2h72c1.104,0,2-0.896,2-2S85.104,88,84,88z"/><path d="M30,62h6c1.104,0,2-0.896,2-2s-0.896-2-2-2h-6c-8.822,0-16-7.178-16-16s7.178-16,16-16c1.104,0,2-0.896,2-2    c0-8.822,7.178-16,16-16s16,7.178,16,16c0,1.104,0.896,2,2,2c8.822,0,16,7.178,16,16s-7.178,16-16,16h-6c-1.104,0-2,0.896-2,2    s0.896,2,2,2h6c11.028,0,20-8.972,20-20c0-10.384-7.955-18.945-18.091-19.91C66.945,11.955,58.384,4,48,4    s-18.945,7.955-19.91,18.09C17.955,23.055,10,31.616,10,42C10,53.028,18.972,62,30,62z"/></g></g><text x="0" y="111" fill="#000000" font-size="5px" font-weight="bold" font-family="'Helvetica Neue', Helvetica, Arial-Unicode, Arial, Sans-serif">Created by Yorlmar Campos</text><text x="0" y="116" fill="#000000" font-size="5px" font-weight="bold" font-family="'Helvetica Neue', Helvetica, Arial-Unicode, Arial, Sans-serif">from the Noun Project</text></svg>