<svg xmlns="http://www.w3.org/2000/svg" xmlns:xlink="http://www.w3.org/1999/xlink" version="1.1" x="0px" y="0px" viewBox="0 0 512 640" enable-background="new 0 0 512 512" xml:space="preserve"><path d="M286.719,298.189c-14.891-63.578-8.656-104.405-0.797-127.437c5.328-15.609,12.078-25.328,16.313-30.359  c7.344,2.797,15.047,4.188,22.734,4.188c18.624,0,37.093-8.078,49.733-23.656l26.922-33.141l-16.578-13.453l13.469-16.563  c3.703-4.578,3.016-11.296-1.563-15.015s-11.297-3.016-15.016,1.563l-13.453,16.562l-35.938-29.187l2.813,2.281l13.453-16.578  c3.719-4.563,3.016-11.297-1.563-15c-4.578-3.719-11.297-3.031-15.016,1.547l-13.452,16.563L302.219,7.051l-26.906,33.141  c-22.031,27.108-18.219,66.78,8.344,89.233c-5.641,7.297-12.766,18.844-18.328,35.641c-5.906-9.297-14.313-17.172-24.859-22.484  c-14.953-7.563-32.391-10.219-49.531-10.219c-41.093,0-80.562,15.297-80.562,15.297s22.375,82.015,73.187,107.671  c9.14,4.609,18.859,6.797,28.453,6.797c16.656,0,32.891-6.625,44.813-18.578c1.016,16.391,3.547,34.672,8.094,55.031H143.345  L186.032,512h170.733l42.688-213.42H285.094L286.719,298.189z M291.875,53.644l13.453-16.562l66.265,53.812l-13.453,16.563  c-8.141,10.031-20.234,15.781-33.171,15.781c-9.875,0-19.172-3.297-26.875-9.547c-8.844-7.188-14.375-17.391-15.547-28.734  S284.688,62.487,291.875,53.644z M193.188,236.268c-16.515-8.328-32.375-26.766-45.858-53.296  c-3.938-7.75-7.141-15.172-9.641-21.531c13.906-3.719,33.531-7.734,53.249-7.734c16.063,0,29.5,2.656,39.922,7.922  c19.031,9.609,27.578,31.891,20.578,51.483c-4.484-3.109-9.781-6.578-15.875-10.391C219.109,192.409,202.688,183.175,202,182.8l0,0  c-2.375-1.344-5.266-1.766-8.094-0.969c-5.687,1.594-8.984,7.469-7.406,13.155c0.797,2.828,2.672,5.078,5.062,6.406v0.016  c0.125,0.078,13.938,7.844,28.531,16.828c8.438,5.203,14.656,9.281,19.25,12.453c-7.453,6.422-17.063,10.094-27.328,10.094  C205.438,240.783,199.109,239.268,193.188,236.268z M339.265,490.656H203.531l-25.625-128.062h186.967L339.265,490.656z   M369.155,341.251H173.641l-4.266-21.343h204.045L369.155,341.251z"/><text x="0" y="527" fill="#000000" font-size="5px" font-weight="bold" font-family="'Helvetica Neue', Helvetica, Arial-Unicode, Arial, Sans-serif">Created by lastspark</text><text x="0" y="532" fill="#000000" font-size="5px" font-weight="bold" font-family="'Helvetica Neue', Helvetica, Arial-Unicode, Arial, Sans-serif">from the Noun Project</text></svg>