
<svg xmlns="http://www.w3.org/2000/svg" xmlns:xlink="http://www.w3.org/1999/xlink" version="1.1" x="0px" y="0px" viewBox="0 0 100 125" enable-background="new 0 0 100 100" xml:space="preserve"><g><path class="iconImg" d="M18.546,84.082h48.799c0.617,0,1.115,0.498,1.115,1.109v3.334c0,0.619-0.498,1.116-1.115,1.116H18.546   c-0.611,0-1.116-0.497-1.116-1.116v-3.334C17.43,84.58,17.935,84.082,18.546,84.082z"/></g><g><path d="M65.895,17.687v63.907h-45.89V16.877c0-3.42,2.772-6.193,6.185-6.193h33.52c2.148,0,4.145,1.13,5.275,2.964   c-8.168-1.898-16.579,1.984-20.453,9.42c-8.112,0.817-14.027,8.062-13.21,16.174c0.206,2.012,0.824,3.975,1.813,5.745   c4.023,7.167,4.947,15.669,2.565,23.532c11.781-4.613,20.795-14.383,24.45-26.497c2.068-6.854-1.08-14.205-7.465-17.439   c-3.782,3.32-5.716,8.275-5.19,13.28c-1.691-3.562-1.877-7.656-0.526-11.368C49.764,18.839,58.238,14.893,65.895,17.687z"/></g><g><path d="M71.916,76.348c0,2.117,1.721,3.838,3.84,3.838s3.838-1.721,3.838-3.838V43.025h2.34v33.322   c0,3.412-2.758,6.178-6.178,6.178c-3.412,0-6.178-2.766-6.178-6.178V59.682h2.338V76.348z"/></g><g><path d="M69.605,20.681l8.822,9.1v7.521c0,1.294,1.047,2.346,2.34,2.346c1.295,0,2.346-1.052,2.346-2.346v-9.42L72.969,17.417   c-0.902-0.924-2.381-0.945-3.312-0.05C68.725,18.27,68.703,19.756,69.605,20.681z/></g></svg>