<svg xmlns="http://www.w3.org/2000/svg" xmlns:xlink="http://www.w3.org/1999/xlink" version="1.1" x="0px" y="0px" viewBox="0 0 100 125" enable-background="new 0 0 100 100" xml:space="preserve"><path d="M73.9,95H49.8c-3.5,0-6.8-3.2-6.8-6.6V86H28.7c-1.6,0-9.7-0.3-15.2-5.5C10.7,77.8,9,73.6,9,69.1  c0-4.1,2.1-9,6.3-14.5c-4.7-0.3-8.7-3.5-10-8.1c-1.5-5.9,2-12,7.8-13.5c1.2-0.3,2.7-0.5,4.5-0.6c-1.5-1-2.8-1.9-3.7-2.8  c-2.1-2.1-3.2-4.8-3.2-7.8c0-2.9,1.1-5.7,3.2-7.8s4.8-3.2,7.8-3.2s5.7,1.1,7.8,3.2c0.9,0.9,1.9,2.2,2.9,3.7c0.1-1.8,0.3-3.4,0.6-4.6  C34.3,8.3,38.6,5,43.6,5c1,0,1.9,0.1,2.8,0.4c2.8,0.8,5.2,2.6,6.7,5.1s1.9,5.5,1.1,8.3c-0.3,1.1-0.9,2.5-1.6,4  c1.3-0.6,2.5-1.1,3.5-1.4s2-0.4,3-0.4c5.3,0,10,3.3,11.2,7.9c1.5,5.6-2.5,12-8.5,13.6c-1,0.3-2.2,0.5-3.6,0.6  c1.1,0.8,2.1,1.5,2.8,2.2c4.4,4.4,4.7,11.9,0.6,16.1c-1.9,1.9-4.5,2.9-7.5,2.9c-3.3,0-6.4-1.3-8.6-3.5c-0.7-0.7-1.4-1.6-2.2-2.7  c-0.1,1.4-0.3,2.6-0.6,3.5c-1.4,5.1-6.1,8.9-11.1,8.9c-0.9,0-1.7-0.1-2.5-0.3c-3.6-1-6.4-4.1-7.5-7.9c-2.2,3.3-2.8,5.4-2.8,6.6  c0,1.9,0.5,3.4,1.5,4.3c2.1,2,7.2,2.7,8.4,2.7H43V71c0-3.6,3.5-6.1,6.8-6.1h24.1c2.8,0,4.8,1.4,5.7,4h10.2c2.6,0,4.9,2.3,4.9,5  s-2.2,5-4.9,5H80v4h9.8c2.8,0,4.9,1.9,4.9,4.5s-2,4.5-4.9,4.5H79.5C78.5,93.9,76.4,95,73.9,95z M23.3,49.7L20,53.6  c-5.3,6.1-8,11.4-8,15.5c0,3.7,1.3,7.1,3.6,9.3c4.8,4.5,12.3,4.7,13.1,4.7H46v5.4c0,1.8,2,3.6,3.8,3.6h24.1c0.9,0,2.6-0.3,3.1-1.9  l0.3-1.1h12.4c0.9,0,1.9-0.4,1.9-1.5s-1-1.5-1.9-1.5H77V76h12.8c1,0,1.9-0.9,1.9-2s-0.9-2-1.9-2H77.3L77,70.8  c-0.4-2-1.3-2.8-3.1-2.8H49.8C48,68,46,69.3,46,71.1V79H28.7c-0.1,0-7.1-0.3-10.5-3.5c-1.6-1.5-2.4-3.8-2.4-6.5  c0-3,1.9-6.7,5.7-11.4l2.9-3.6l-0.3,4.7c-0.2,4.1,2.2,7.9,5.7,8.8c0.6,0.2,1.1,0.2,1.7,0.2c3.6,0,7.2-2.9,8.2-6.6  c0.4-1.4,0.6-3.8,0.6-6.3c0-0.5,0.2-1,0.6-1.4c0.4-0.4,0.9-0.6,1.4-0.6c0.7,0,1.3,0.4,1.7,1c1.2,2.1,2.5,4,3.6,5.1  c1.6,1.6,4.1,2.6,6.5,2.6c2.1,0,4-0.7,5.3-2.1c2.9-3,2.7-8.6-0.6-11.8c-1.1-1.1-3-2.4-5.2-3.6c-0.8-0.4-1.2-1.3-0.9-2.2  c0.2-0.9,1-1.4,1.9-1.4c0.3,0,0.5,0,0.7,0c2.3,0,4.4-0.2,5.7-0.6c4.4-1.2,7.5-5.9,6.4-10c-0.9-3.3-4.4-5.7-8.3-5.7  c-0.8,0-1.5,0.1-2.2,0.3c-1.5,0.4-3.8,1.5-6.1,2.9c-0.9,0.6-2.2,0.2-2.7-0.7c-0.3-0.6-0.3-1.4,0.1-2c1.5-2.4,2.7-4.9,3.2-6.5  c0.6-2.1,0.3-4.2-0.8-6s-2.8-3.2-4.8-3.7C44.9,8.1,44.3,8,43.6,8c-3.6,0-6.8,2.4-7.7,5.9c-0.5,1.8-0.7,4.7-0.5,7.8  c0,0.5-0.2,1-0.5,1.4c-0.4,0.4-0.9,0.6-1.4,0.6c-0.7,0-1.4-0.4-1.7-1.1c-1.4-2.7-3-5.2-4.3-6.5c-1.5-1.5-3.5-2.3-5.6-2.3  s-4.1,0.8-5.6,2.3S14,19.6,14,21.7s0.8,4.1,2.3,5.6c1.3,1.3,3.7,2.9,6.4,4.3c0.8,0.4,1.2,1.3,1,2.2s-1,1.5-1.9,1.5c-0.7,0-1.4,0-2,0  c-2.3,0-4.4,0.2-5.7,0.6c-4.2,1.1-6.8,5.5-5.6,9.8c0.9,3.5,4.1,5.9,7.7,5.9c0.7,0,1.4-0.1,2.1-0.3L23.3,49.7z"/><path d="M37.5,47.3c-0.8,0-1.7-0.1-2.5-0.3c-5.1-1.4-8.1-6.6-6.7-11.7c1.1-4.2,4.9-7.1,9.2-7.1  c0.8,0,1.7,0.1,2.5,0.3c2.5,0.7,4.5,2.2,5.8,4.4s1.6,4.8,1,7.2C45.5,44.4,41.8,47.3,37.5,47.3z M37.4,31.2c-2.9,0-5.5,2-6.3,4.8  c-0.9,3.5,1.1,7.1,4.6,8c0.6,0.1,1.1,0.2,1.7,0.2c2.9,0,5.5-2,6.3-4.8c0.5-1.7,0.2-3.4-0.7-4.9s-2.3-2.6-4-3  C38.6,31.3,38,31.2,37.4,31.2z"/><text x="0" y="115" fill="#000000" font-size="5px" font-weight="bold" font-family="'Helvetica Neue', Helvetica, Arial-Unicode, Arial, Sans-serif">Created by FAKTOR VIER</text><text x="0" y="120" fill="#000000" font-size="5px" font-weight="bold" font-family="'Helvetica Neue', Helvetica, Arial-Unicode, Arial, Sans-serif">from the Noun Project</text></svg>