<svg xmlns="http://www.w3.org/2000/svg" xmlns:xlink="http://www.w3.org/1999/xlink" version="1.1" x="0px" y="0px" viewBox="0 0 100 125" enable-background="new 0 0 100 100" xml:space="preserve"><path d="M30.982,53.587V32.231c0-1.16-0.938-2.098-2.098-2.098s-2.098,0.938-2.098,2.098v21.356c-1.529,0.772-2.588,2.34-2.588,4.17  c0,2.588,2.098,4.687,4.687,4.687s4.687-2.098,4.687-4.687C33.57,55.926,32.511,54.358,30.982,53.587z"/><path d="M24.648,52.582V45.42v-6.294v-14.92c0-2.339,1.896-4.236,4.236-4.236s4.236,1.896,4.236,4.236v14.92h0v6.294h0v7.162  c0.244,0.198,0.448,0.436,0.663,0.664h66.101C99.953,52.172,100,51.092,100,50c0-1.545-0.081-3.071-0.218-4.58H37.316v-6.294H98.8  C93.834,16.743,73.878,0,50,0S6.166,16.743,1.2,39.126h19.252v6.294H0.218C0.081,46.929,0,48.455,0,50  c0,1.092,0.047,2.172,0.116,3.247h23.869C24.2,53.018,24.404,52.78,24.648,52.582z"/><path d="M92.437,53.247c-0.037,0.106-0.089,0.207-0.163,0.293c-0.145,0.127-0.313,0.209-0.525,0.209  c-0.188,0-0.377-0.082-0.525-0.209c-0.073-0.086-0.124-0.187-0.161-0.293H33.782c1.132,1.203,1.863,2.783,1.863,4.566  c0,3.734-3.027,6.761-6.761,6.761s-6.761-3.027-6.761-6.761c0-1.783,0.73-3.363,1.863-4.566H0.116  c0.149,2.319,0.463,4.592,0.917,6.814c0.349,0.008,0.696,0.135,0.941,0.381c0.252,0.252,0.4,0.609,0.4,0.965  c0,0.357-0.148,0.713-0.4,0.965c-0.102,0.103-0.226,0.175-0.354,0.24c4.56,17.547,18.405,31.342,35.979,35.829  c-0.049-0.102-0.083-0.209-0.083-0.319c0-0.209,0.084-0.397,0.232-0.525c0.272-0.275,0.733-0.275,1.026,0  c0.127,0.127,0.211,0.316,0.211,0.525c0,0.188-0.084,0.377-0.211,0.525c-0.026,0.023-0.059,0.035-0.088,0.054  c0.348,0.081,0.704,0.14,1.055,0.214c0.821-1.222,1.836-2.182,2.751-3.033c0.687-0.639,1.312-1.228,1.825-1.865  c0.067-0.197,0.164-0.383,0.311-0.53c0.038-0.039,0.093-0.056,0.136-0.089c0.434-0.682,0.723-1.456,0.82-2.41  c-0.185-0.003-0.37-0.082-0.515-0.207c-0.125-0.147-0.209-0.336-0.209-0.525c0-0.209,0.084-0.397,0.232-0.525  c0.112-0.123,0.297-0.188,0.487-0.194c-0.244-2.156-1.512-3.354-3.087-4.82c-1.927-1.794-4.327-4.028-4.327-8.314  c0-4.284,2.4-6.516,4.328-8.309c0.599-0.557,1.149-1.077,1.621-1.622l-2.755-2.754l1.97-0.528c-0.022-0.069-0.043-0.138-0.043-0.209  c0-0.188,0.084-0.377,0.209-0.525c0.295-0.275,0.756-0.275,1.029,0c0.104,0.104,0.162,0.231,0.196,0.361l0.906-0.243  c0-0.02,0.004-0.037,0.004-0.057h0.209l6.566-1.759l-2.96,11.043l-2.691-2.69c-0.568,0.632-1.161,1.197-1.72,1.717  c-1.753,1.629-3.137,2.917-3.137,5.576c0,2.662,1.385,3.951,3.138,5.583c0.694,0.646,1.447,1.354,2.129,2.189  c0.032-0.041,0.049-0.093,0.086-0.13c0.484-0.504,1.428-0.504,1.93,0c0.252,0.252,0.399,0.609,0.399,0.965  c0,0.357-0.148,0.693-0.399,0.965c-0.177,0.178-0.413,0.279-0.659,0.338c0.51,1.104,0.84,2.404,0.84,3.987  c0,4.286-2.4,6.52-4.326,8.313c-0.374,0.348-0.726,0.681-1.057,1.014C45.953,99.868,47.96,100,50,100  c1.833,0,3.637-0.117,5.418-0.31c0.874-1.605,2.112-2.785,3.21-3.808c1.752-1.632,3.137-2.921,3.137-5.582  c0-2.662-1.385-3.951-3.138-5.583C56.7,82.923,54.3,80.69,54.3,76.404c0-4.284,2.399-6.516,4.328-8.309  c0.599-0.557,1.149-1.077,1.621-1.622l-2.755-2.754l4.267-1.143c0-0.02,0.004-0.037,0.004-0.057h0.209l6.565-1.759l-1.393,5.198  c0.145,0.062,0.283,0.142,0.392,0.256c0.252,0.252,0.399,0.588,0.399,0.965c0,0.356-0.148,0.713-0.399,0.965  c-0.25,0.252-0.609,0.399-0.965,0.399c-0.039,0-0.075-0.019-0.113-0.023l-0.88,3.283l-2.691-2.69  c-0.568,0.632-1.161,1.197-1.72,1.717c-1.753,1.629-3.137,2.917-3.137,5.576c0,2.487,1.214,3.778,2.803,5.268  c0.176,0.009,0.356,0.064,0.493,0.192c0.113,0.113,0.181,0.277,0.198,0.458c1.855,1.742,3.971,3.95,3.971,7.979  c0,4.286-2.399,6.52-4.326,8.313c-0.052,0.048-0.099,0.094-0.15,0.141c0.392-0.088,0.79-0.16,1.179-0.258  c0.031-0.145,0.091-0.279,0.201-0.374c0.252-0.275,0.733-0.275,1.026,0c0.009,0.009,0.013,0.024,0.022,0.033  c3.228-0.9,6.326-2.109,9.255-3.605c-0.096-0.057-0.198-0.105-0.276-0.183c-0.252-0.272-0.397-0.609-0.397-0.965  c0-0.356,0.145-0.713,0.397-0.965c0.504-0.504,1.406-0.504,1.93,0c0.252,0.252,0.399,0.609,0.399,0.965  c0,0.015-0.008,0.029-0.009,0.044c1.04-0.594,2.036-1.255,3.027-1.92c0.074-0.379,0.126-0.777,0.126-1.225  c0-2.662-1.385-3.951-3.138-5.583c-1.927-1.794-4.326-4.028-4.326-8.314c0-4.284,2.399-6.516,4.328-8.309  c0.599-0.557,1.149-1.077,1.621-1.622l-2.755-2.754l4.267-1.143c0-0.02,0.004-0.037,0.004-0.057h0.209l6.565-1.759l-0.133,0.497  c0.138,0.027,0.281,0.051,0.389,0.152c0.127,0.127,0.211,0.316,0.211,0.525c0,0.188-0.084,0.377-0.211,0.525  c-0.145,0.127-0.334,0.209-0.525,0.209c-0.078,0-0.155-0.022-0.23-0.047l-2.461,9.183l-2.691-2.69  c-0.568,0.632-1.161,1.197-1.72,1.717c-1.753,1.629-3.137,2.917-3.137,5.576c0,2.662,1.385,3.951,3.138,5.583  c1.681,1.565,3.719,3.466,4.213,6.77c0.256-0.209,0.533-0.392,0.785-0.606c-0.122-0.146-0.205-0.332-0.205-0.517  c0-0.188,0.084-0.377,0.209-0.525c0.275-0.275,0.777-0.275,1.049,0c0.019,0.022,0.029,0.05,0.045,0.073  c9.424-8.477,15.617-20.477,16.481-33.935H92.437z M7.303,58.785c-0.125-0.147-0.209-0.336-0.209-0.525  c0-0.188,0.084-0.377,0.209-0.525c0.275-0.275,0.756-0.275,1.029,0c0.148,0.127,0.232,0.316,0.232,0.525  c0,0.188-0.084,0.377-0.211,0.525c-0.145,0.127-0.334,0.209-0.525,0.209C7.639,58.994,7.451,58.912,7.303,58.785z M9.402,77.143  c-0.145,0.127-0.334,0.209-0.525,0.209c-0.188,0-0.377-0.082-0.525-0.209c-0.125-0.147-0.209-0.336-0.209-0.525  c0-0.188,0.084-0.377,0.209-0.525c0.252-0.275,0.756-0.275,1.049,0c0.127,0.148,0.211,0.336,0.211,0.525  C9.613,76.806,9.529,76.995,9.402,77.143z M11.416,67.617c-0.25,0.252-0.586,0.399-0.965,0.399c-0.377,0-0.713-0.147-0.965-0.422  c-0.252-0.229-0.397-0.586-0.397-0.942c0-0.356,0.145-0.713,0.397-0.965c0.504-0.504,1.428-0.525,1.93,0  c0.252,0.252,0.4,0.609,0.4,0.965C11.815,67.009,11.668,67.365,11.416,67.617z M21.465,62.981c0.275-0.275,0.756-0.275,1.029,0  c0.148,0.148,0.232,0.336,0.232,0.525c0,0.188-0.084,0.377-0.211,0.525c-0.145,0.127-0.334,0.209-0.525,0.209  c-0.188,0-0.377-0.082-0.525-0.209c-0.125-0.147-0.209-0.336-0.209-0.525C21.256,63.317,21.34,63.128,21.465,62.981z M16.22,73.471  c-0.145,0.127-0.334,0.209-0.525,0.209c-0.188,0-0.377-0.082-0.525-0.209c-0.125-0.147-0.209-0.336-0.209-0.525  c0-0.188,0.084-0.377,0.209-0.525c0.275-0.275,0.756-0.275,1.029,0c0.148,0.148,0.232,0.336,0.232,0.525  C16.431,73.135,16.347,73.324,16.22,73.471z M20.416,83.437c-0.145,0.127-0.313,0.209-0.525,0.209c-0.188,0-0.377-0.082-0.525-0.209  c-0.125-0.147-0.209-0.336-0.209-0.525c0-0.209,0.084-0.397,0.232-0.525c0.229-0.252,0.733-0.275,1.026,0  c0.127,0.127,0.211,0.316,0.211,0.525C20.627,83.101,20.543,83.289,20.416,83.437z M22.955,74.961  c-0.25,0.252-0.609,0.399-0.965,0.399c-0.357,0-0.713-0.147-0.965-0.399c-0.252-0.252-0.397-0.609-0.397-0.965  c0-0.356,0.145-0.713,0.397-0.965c0.525-0.525,1.428-0.504,1.93,0c0.252,0.252,0.399,0.609,0.399,0.965  C23.354,74.352,23.207,74.708,22.955,74.961z M25.137,84.486c-0.145,0.127-0.313,0.209-0.525,0.209  c-0.188,0-0.377-0.082-0.525-0.209c-0.125-0.147-0.209-0.336-0.209-0.525c0-0.188,0.084-0.377,0.209-0.525  c0.295-0.275,0.756-0.275,1.029,0c0.148,0.148,0.232,0.336,0.232,0.525C25.348,84.15,25.264,84.338,25.137,84.486z M25.661,70.324  c-0.125-0.147-0.209-0.336-0.209-0.525c0-0.209,0.084-0.397,0.232-0.525c0.229-0.252,0.733-0.275,1.026,0  c0.127,0.127,0.211,0.316,0.211,0.525c0,0.188-0.084,0.377-0.211,0.525c-0.145,0.127-0.334,0.209-0.525,0.209  C25.998,70.533,25.809,70.451,25.661,70.324z M27.759,82.388c-0.145,0.127-0.334,0.209-0.525,0.209  c-0.188,0-0.377-0.082-0.525-0.209c-0.125-0.147-0.209-0.336-0.209-0.525c0-0.209,0.084-0.397,0.232-0.525  c0.229-0.252,0.733-0.275,1.026,0c0.127,0.127,0.211,0.316,0.211,0.525C27.97,82.052,27.887,82.24,27.759,82.388z M31.872,94.368  c-0.25,0.252-0.586,0.399-0.965,0.399c-0.357,0-0.713-0.147-0.965-0.399c-0.252-0.252-0.397-0.609-0.397-0.965  c0-0.356,0.145-0.713,0.397-0.965c0.525-0.504,1.428-0.504,1.93,0c0.252,0.252,0.399,0.609,0.399,0.965  C32.271,93.759,32.124,94.115,31.872,94.368z M34.578,74.52c-0.145,0.127-0.334,0.209-0.525,0.209c-0.188,0-0.377-0.082-0.525-0.209  c-0.125-0.147-0.209-0.336-0.209-0.525c0-0.188,0.084-0.397,0.209-0.525c0.275-0.275,0.756-0.275,1.029,0  c0.148,0.148,0.232,0.336,0.232,0.525C34.789,74.184,34.705,74.373,34.578,74.52z M38.774,89.731c0.295-0.275,0.756-0.275,1.029,0  c0.148,0.148,0.232,0.336,0.232,0.525c0,0.188-0.084,0.377-0.211,0.525c-0.145,0.127-0.334,0.209-0.525,0.209  c-0.188,0-0.377-0.082-0.525-0.209c-0.125-0.147-0.209-0.336-0.209-0.525C38.565,90.067,38.649,89.878,38.774,89.731z   M37.201,89.731c-0.145,0.127-0.334,0.209-0.525,0.209c-0.188,0-0.377-0.082-0.525-0.209c-0.125-0.147-0.209-0.336-0.209-0.525  c0-0.188,0.084-0.397,0.209-0.525c0.252-0.252,0.756-0.275,1.029,0c0.148,0.148,0.232,0.336,0.232,0.525  C37.412,89.395,37.328,89.583,37.201,89.731z M37.201,56.162c-0.125-0.147-0.209-0.336-0.209-0.525c0-0.188,0.084-0.377,0.209-0.525  c0.275-0.275,0.756-0.275,1.049,0c0.127,0.148,0.211,0.336,0.211,0.525c0,0.188-0.084,0.377-0.211,0.525  c-0.145,0.127-0.334,0.209-0.525,0.209C37.537,56.371,37.348,56.289,37.201,56.162z M38.774,70.324  c-0.145,0.127-0.334,0.209-0.525,0.209c-0.188,0-0.377-0.082-0.525-0.209c-0.125-0.147-0.209-0.336-0.209-0.525  c0-0.188,0.084-0.377,0.209-0.525c0.295-0.275,0.756-0.275,1.049,0c0.127,0.148,0.211,0.336,0.211,0.525  C38.985,69.988,38.901,70.176,38.774,70.324z M43.495,76.093c-0.145,0.127-0.334,0.209-0.525,0.209  c-0.188,0-0.377-0.082-0.525-0.209c-0.125-0.147-0.209-0.336-0.209-0.525c0-0.188,0.084-0.377,0.209-0.525  c0.295-0.275,0.756-0.275,1.029,0c0.148,0.148,0.232,0.336,0.232,0.525C43.706,75.757,43.622,75.946,43.495,76.093z M47.691,71.897  c-0.145,0.127-0.334,0.209-0.525,0.209c-0.188,0-0.377-0.082-0.525-0.209c-0.125-0.147-0.209-0.336-0.209-0.525  c0-0.188,0.084-0.377,0.209-0.525c0.295-0.275,0.756-0.275,1.029,0c0.148,0.148,0.232,0.336,0.232,0.525  C47.902,71.561,47.818,71.75,47.691,71.897z M59.23,87.108c0.295-0.275,0.756-0.275,1.029,0c0.148,0.148,0.232,0.336,0.232,0.525  c0,0.188-0.084,0.377-0.211,0.525c-0.145,0.127-0.334,0.209-0.525,0.209c-0.188,0-0.377-0.082-0.525-0.209  c-0.125-0.147-0.209-0.336-0.209-0.525C59.021,87.444,59.105,87.256,59.23,87.108z M51.362,97.598  c-0.145,0.127-0.334,0.209-0.525,0.209c-0.188,0-0.377-0.082-0.525-0.209c-0.125-0.147-0.209-0.336-0.209-0.525  c0-0.188,0.084-0.377,0.209-0.525c0.275-0.275,0.777-0.275,1.049,0c0.127,0.148,0.211,0.336,0.211,0.525  C51.573,97.262,51.49,97.451,51.362,97.598z M52.202,61.932c0-0.188,0.084-0.377,0.209-0.525c0.295-0.275,0.756-0.275,1.029,0  c0.148,0.148,0.232,0.336,0.232,0.525c0,0.188-0.084,0.377-0.211,0.525c-0.145,0.127-0.334,0.209-0.525,0.209  c-0.188,0-0.377-0.082-0.525-0.209C52.286,62.309,52.202,62.12,52.202,61.932z M53.985,80.814c-0.145,0.127-0.334,0.209-0.525,0.209  c-0.188,0-0.377-0.082-0.525-0.209c-0.125-0.147-0.209-0.336-0.209-0.525c0-0.188,0.084-0.377,0.209-0.525  c0.275-0.275,0.777-0.275,1.049,0c0.127,0.148,0.211,0.336,0.211,0.525C54.196,80.478,54.112,80.667,53.985,80.814z M57.573,57.127  c-0.273,0.252-0.609,0.399-0.965,0.399c-0.357,0-0.713-0.147-0.965-0.399c-0.252-0.272-0.397-0.609-0.397-0.965  c0-0.356,0.145-0.713,0.397-0.965c0.525-0.525,1.406-0.504,1.93,0c0.252,0.252,0.399,0.609,0.399,0.965  C57.972,56.519,57.825,56.855,57.573,57.127z M62.377,58.785c-0.145,0.127-0.334,0.209-0.525,0.209  c-0.188,0-0.377-0.082-0.525-0.209c-0.125-0.147-0.209-0.336-0.209-0.525c0-0.188,0.084-0.377,0.209-0.525  c0.295-0.275,0.756-0.275,1.049,0c0.127,0.148,0.211,0.336,0.211,0.525C62.588,58.449,62.504,58.637,62.377,58.785z M65.84,75.044  c0-0.188,0.084-0.377,0.209-0.525c0.295-0.275,0.756-0.275,1.029,0c0.148,0.148,0.232,0.336,0.232,0.525  c0,0.188-0.084,0.377-0.211,0.525c-0.145,0.127-0.334,0.209-0.525,0.209c-0.188,0-0.377-0.082-0.525-0.209  C65.924,75.422,65.84,75.233,65.84,75.044z M67.622,92.353c-0.145,0.127-0.313,0.209-0.525,0.209c-0.188,0-0.377-0.082-0.525-0.209  c-0.125-0.147-0.209-0.336-0.209-0.525c0-0.188,0.064-0.377,0.209-0.525c0.275-0.275,0.756-0.275,1.049,0  c0.127,0.148,0.211,0.336,0.211,0.525C67.833,92.017,67.749,92.206,67.622,92.353z M70.56,82.388c0,0.377-0.148,0.713-0.399,0.965  c-0.25,0.252-0.586,0.399-0.965,0.399c-0.377,0-0.713-0.147-0.965-0.399c-0.252-0.252-0.397-0.609-0.397-0.965  c0-0.356,0.145-0.713,0.397-0.965c0.504-0.504,1.428-0.504,1.93,0C70.413,81.675,70.56,82.011,70.56,82.388z M70.769,57.211  c-0.145,0.127-0.334,0.209-0.525,0.209c-0.188,0-0.377-0.082-0.525-0.209c-0.125-0.147-0.209-0.336-0.209-0.525  c0-0.209,0.084-0.377,0.209-0.525c0.295-0.275,0.756-0.275,1.029,0c0.148,0.148,0.232,0.336,0.232,0.525  C70.98,56.875,70.897,57.064,70.769,57.211z M80.651,56.078c-0.25,0.252-0.609,0.399-0.965,0.399c-0.356,0-0.693-0.147-0.965-0.399  c-0.252-0.272-0.397-0.609-0.397-0.965c0-0.356,0.145-0.713,0.397-0.965c0.504-0.504,1.428-0.504,1.93,0  c0.252,0.232,0.399,0.588,0.399,0.965C81.051,55.47,80.903,55.806,80.651,56.078z M77.588,77.667  c-0.145,0.127-0.334,0.209-0.525,0.209c-0.188,0-0.377-0.082-0.525-0.209c-0.125-0.147-0.209-0.336-0.209-0.525  c0-0.188,0.084-0.377,0.209-0.525c0.295-0.275,0.756-0.275,1.029,0c0.148,0.127,0.232,0.336,0.232,0.525  C77.799,77.331,77.715,77.52,77.588,77.667z M85.96,77.667c-0.125,0.127-0.313,0.209-0.504,0.209c-0.188,0-0.377-0.082-0.525-0.229  c-0.125-0.127-0.209-0.295-0.209-0.504c0-0.188,0.084-0.377,0.209-0.525c0.275-0.275,0.756-0.275,1.049,0  c0.127,0.148,0.211,0.336,0.211,0.525C86.191,77.352,86.107,77.52,85.96,77.667z M86.505,71.373  c-0.145,0.127-0.334,0.209-0.525,0.209c-0.188,0-0.397-0.082-0.525-0.209c-0.125-0.147-0.209-0.336-0.209-0.525  c0-0.188,0.084-0.377,0.209-0.525c0.252-0.252,0.756-0.275,1.049,0c0.127,0.148,0.211,0.336,0.211,0.525  C86.716,71.037,86.632,71.225,86.505,71.373z M90.596,59.225c-0.229,0.252-0.565,0.399-0.945,0.399  c-0.377,0-0.713-0.147-0.965-0.422c-0.252-0.25-0.397-0.586-0.397-0.942c0-0.356,0.145-0.713,0.397-0.965  c0.504-0.504,1.428-0.504,1.93,0c0.252,0.232,0.399,0.588,0.399,0.965C91.016,58.637,90.869,58.973,90.596,59.225z M93.346,62.981  c0.252-0.275,0.733-0.275,1.026,0c0.127,0.148,0.211,0.336,0.211,0.525c0,0.188-0.064,0.357-0.211,0.504  c-0.145,0.148-0.334,0.229-0.525,0.229c-0.188,0-0.377-0.082-0.525-0.209c-0.125-0.147-0.209-0.336-0.209-0.525  C93.114,63.296,93.198,63.108,93.346,62.981z M94.372,68.205c-0.145,0.148-0.334,0.229-0.525,0.229  c-0.188,0-0.377-0.082-0.525-0.209c-0.125-0.147-0.209-0.336-0.209-0.525c0-0.209,0.084-0.397,0.232-0.525  c0.252-0.275,0.754-0.275,1.026,0c0.127,0.148,0.211,0.336,0.211,0.525C94.583,67.89,94.5,68.058,94.372,68.205z"/><text x="0" y="115" fill="#000000" font-size="5px" font-weight="bold" font-family="'Helvetica Neue', Helvetica, Arial-Unicode, Arial, Sans-serif">Created by Yo Szczepanska</text><text x="0" y="120" fill="#000000" font-size="5px" font-weight="bold" font-family="'Helvetica Neue', Helvetica, Arial-Unicode, Arial, Sans-serif">from the Noun Project</text></svg>