<svg xmlns="http://www.w3.org/2000/svg" xmlns:xlink="http://www.w3.org/1999/xlink" version="1.1" x="0px" y="0px" viewBox="0 0 100 125" enable-background="new 0 0 100 100" xml:space="preserve"><path d="M50,71.9c-2.2,0-4.1-1.8-4.2-4c0,0,0-0.1,0-0.1V51c-2.7,1.8-6.4,2.1-9.1,0.6c-4-2.3-5.3-8.1-2.8-12.3  c0.3-0.6,0.9-1.4,1.5-2.2c-1.1,0.2-2.2,0.3-3.1,0.3c-4.8,0-8.6-3.9-8.6-8.6c0-4.8,3.9-8.6,8.6-8.6c0.9,0,2,0.1,3.3,0.4  c-0.9-1-1.6-1.9-2-2.7c-2.4-4.1-0.9-9.3,3.2-11.7C38.1,5.4,39.6,5,41.1,5c3.1,0,5.9,1.6,7.4,4.2c0.5,0.8,0.9,1.9,1.4,3.2  c0.4-1.2,0.9-2.3,1.3-3.1C52.8,6.6,55.6,5,58.8,5c1.5,0,3,0.4,4.3,1.1c4.2,2.4,5.6,7.7,3.2,11.7c-0.4,0.8-1.1,1.7-1.9,2.6  c1-0.2,2-0.3,2.7-0.3c2.5,0,5.1,1.1,6.8,3c1.5,1.6,2.2,3.6,2.1,5.6c0,4.5-4.3,8.5-9.2,8.5c-0.7,0-1.6-0.1-2.5-0.3  c0.6,0.7,1.1,1.4,1.5,2.1c1.1,2,1.5,4.4,1.1,6.7c-0.5,2.4-1.9,4.4-3.8,5.6c-2.5,1.5-6,1.3-8.7-0.3v16.6c0,0,0,0.1,0,0.1  C54.1,70.1,52.2,71.9,50,71.9z M48.3,67.6C48.3,67.7,48.3,67.7,48.3,67.6c0,1,0.8,1.7,1.7,1.7c0.9,0,1.7-0.7,1.7-1.6c0,0,0,0,0-0.1  V48.5c0-0.5,0.3-1,0.8-1.2c0.5-0.2,1-0.1,1.4,0.3c2,2.2,5.4,3,7.8,1.7c1.4-0.8,2.3-2.2,2.7-3.9c0.4-1.7,0.1-3.5-0.8-5  c-0.8-1.4-2.4-3.2-4.2-4.7c-0.5-0.4-0.6-1.1-0.3-1.6c0.3-0.5,0.9-0.8,1.5-0.6c2.3,0.8,4.7,1.3,6.2,1.3c3.6,0,6.7-2.9,6.7-6.1  c0.1-1.4-0.4-2.7-1.4-3.8c-1.3-1.4-3.2-2.2-5-2.2c-1.5,0-4.1,0.5-6.6,1.4c-0.6,0.2-1.2-0.1-1.5-0.6c-0.3-0.5-0.2-1.2,0.3-1.6  c2.1-1.7,4.1-3.9,4.9-5.3c1.7-2.9,0.7-6.6-2.3-8.3c-0.9-0.5-2-0.8-3-0.8c-2.2,0-4.2,1.1-5.3,3c-0.9,1.5-1.8,4.5-2.3,7.4  c-0.1,0.6-0.6,1.1-1.2,1.1s-1.1-0.4-1.2-1.1c-0.5-2.9-1.4-6-2.3-7.5c-1.1-1.9-3.1-3-5.3-3c-1.1,0-2.1,0.3-3,0.8  c-2.9,1.7-3.9,5.4-2.3,8.3c0.9,1.6,3,3.8,5.2,5.6c0.5,0.4,0.6,1.1,0.3,1.6c-0.3,0.5-0.9,0.8-1.5,0.6c-2.7-1-5.7-1.7-7.4-1.7  c-3.4,0-6.1,2.8-6.1,6.1c0,3.4,2.8,6.1,6.1,6.1c1.5,0,4.2-0.5,6.9-1.6c0.6-0.2,1.2,0,1.5,0.5c0.3,0.5,0.2,1.2-0.3,1.6  c-2.1,1.8-3.8,3.7-4.5,5c-1.8,3.1-0.9,7.3,1.9,8.9c0.8,0.5,1.7,0.7,2.7,0.7c2,0,4.2-1.1,5.4-2.7c0.3-0.4,0.9-0.6,1.4-0.4  c0.5,0.2,0.9,0.6,0.9,1.2V67.6z"/><path d="M49.8,36.2c-1.3,0-2.6-0.4-3.8-1c-1.7-1-3-2.6-3.5-4.6c-0.5-1.9-0.2-3.9,0.8-5.6c1.4-2.3,3.8-3.7,6.5-3.7  c1.3,0,2.6,0.4,3.7,1c1.7,1,2.9,2.6,3.4,4.5c0.5,1.9,0.3,3.9-0.8,5.6C54.9,34.7,52.4,36.2,49.8,36.2z M49.9,23.8  c-1.8,0-3.4,0.9-4.3,2.5c-0.7,1.1-0.9,2.4-0.5,3.7c0.3,1.3,1.2,2.4,2.3,3c0.8,0.5,1.6,0.7,2.5,0.7c1.8,0,3.4-0.9,4.3-2.5  c0.7-1.1,0.9-2.4,0.5-3.7c-0.3-1.3-1.2-2.4-2.3-3C51.5,24,50.7,23.8,49.9,23.8z"/><path d="M50,95c-15.7,0-28.5-12.8-28.5-28.5c0-5.1,1.3-10,3.9-14.4c0-0.1,0.1-0.1,0.1-0.2c0.8-1.2,2.1-1.8,3.4-1.8  c2.3,0,4.2,1.9,4.2,4.2c0,0.6-0.1,1.1-0.4,1.7c0,0.1-0.1,0.2-0.1,0.3c-1.8,3.1-2.8,6.6-2.8,10.2c0,11.1,9,20.1,20.1,20.1  c11.1,0,20.1-9,20.1-20.1c0-3.6-0.9-7-2.8-10.2c-0.1-0.1-0.1-0.2-0.1-0.3c-0.3-0.6-0.4-1.1-0.4-1.8c0-2.3,1.9-4.2,4.2-4.2  c1.4,0,2.7,0.7,3.5,1.9c0,0,0.1,0.1,0.1,0.1c2.6,4.4,3.9,9.3,3.9,14.4C78.5,82.2,65.7,95,50,95z M27.5,53.5c-2.3,3.9-3.5,8.4-3.5,13  c0,14.3,11.6,26,26,26s26-11.6,26-26c0-4.5-1.2-9-3.5-13c0,0,0,0,0-0.1c-0.3-0.5-0.8-0.8-1.4-0.8c-0.9,0-1.7,0.7-1.7,1.7  c0,0.3,0.1,0.5,0.2,0.8c0,0.1,0.1,0.1,0.1,0.2c2,3.4,3,7.3,3,11.3C72.6,79,62.5,89.2,50,89.2S27.4,79,27.4,66.5c0-3.9,1-7.8,3-11.2  c0-0.1,0.1-0.2,0.1-0.2c0.1-0.3,0.2-0.5,0.2-0.8c0-0.9-0.7-1.7-1.7-1.7C28.4,52.6,27.9,52.9,27.5,53.5  C27.6,53.5,27.5,53.5,27.5,53.5z"/></svg>