<svg xmlns="http://www.w3.org/2000/svg" xmlns:xlink="http://www.w3.org/1999/xlink" version="1.1" x="0px" y="0px" viewBox="0 0 96 120" enable-background="new 0 0 96 96" xml:space="preserve"><g><g><path d="M49.414,16.586c-0.78-0.781-2.048-0.781-2.828,0C45.745,17.426,26,37.408,26,58c0,11.72,10.28,22,22,22s22-10.28,22-22    C70,37.408,50.255,17.426,49.414,16.586z M48,76c-10.302,0-18-9.503-18-18c0-15.877,13.529-32.137,18.001-37.076    C52.473,25.858,66,42.101,66,58C66,66.497,58.302,76,48,76z"/><path d="M49.206,28.657c-0.877-0.671-2.132-0.505-2.804,0.371C41.77,35.071,34,46.871,34,58c0,1.104,0.896,2,2,2s2-0.896,2-2    c0-9.949,7.253-20.898,11.576-26.539C50.248,30.584,50.082,29.329,49.206,28.657z"/></g></g></svg>