<svg xmlns="http://www.w3.org/2000/svg" xmlns:xlink="http://www.w3.org/1999/xlink" version="1.0" x="0px" y="0px" viewBox="0 0 100 125" enable-background="new 0 0 100 100" xml:space="preserve"><path d="M35.4,43.4c-2.3,0-4.5-0.9-6.2-2.6c-2.7-2.8-2.9-7.1-0.5-11.9l5.2-10.5c0.3-0.5,0.8-0.9,1.4-0.9l0,0c0.6,0,1.2,0.3,1.4,0.9  L42.1,29c1.7,4,3.1,8.2-0.5,11.8C39.9,42.5,37.7,43.4,35.4,43.4z M35.4,22.8l-3.8,7.6c-0.8,1.6-2.5,5.7-0.1,8.1  c1,1.1,2.4,1.6,3.9,1.6c1.5,0,2.9-0.6,3.9-1.6c1.8-1.8,1.8-3.7-0.2-8.2L35.4,22.8z"/><path d="M55.3,82.4c-4.9,0-9.5-1.8-13-5.2C39.5,74.6,34,67,41.5,52.9l12.3-23.7c0.3-0.5,0.8-0.9,1.4-0.9s1.2,0.3,1.4,0.9L69,52.9  c3.9,8.7,6.8,17.1-0.7,24.4C64.8,80.6,60.2,82.4,55.3,82.4z M55.3,33.4L44.4,54.4c-2.2,4.1-6.5,14.2,0.1,20.5  c2.9,2.8,6.7,4.3,10.8,4.3c4.1,0,7.9-1.5,10.8-4.3c5.5-5.3,4.4-11.1,0.1-20.6L55.3,33.4z"/><path d="M48.6,72.5c-0.4,0-0.8-0.2-1.1-0.5c-0.3-0.3-0.5-0.8-0.5-1.2l0.2-6.3c0-0.9,0.8-1.5,1.7-1.6c0.9,0,1.6,0.8,1.6,1.7l-0.2,4.6  l4.6-0.2c0.9,0,1.6,0.7,1.7,1.6c0,0.9-0.7,1.6-1.6,1.7L48.6,72.5C48.7,72.5,48.6,72.5,48.6,72.5z"/><path d="M49.7,71c-0.4,0-0.8-0.1-1.1-0.4C48,70,47.9,69,48.5,68.3L58,57.8H50c-0.7,0-1.2-0.4-1.5-1c-0.3-0.6-0.1-1.3,0.3-1.8  l8.6-8.7c0.6-0.6,1.6-0.6,2.3,0c0.6,0.6,0.6,1.6,0,2.3l-5.9,6h7.9c0.6,0,1.2,0.4,1.5,1c0.3,0.6,0.2,1.3-0.3,1.7L50.9,70.5  C50.6,70.9,50.2,71,49.7,71z"/><text x="0" y="115" fill="#000000" font-size="5px" font-weight="bold" font-family="'Helvetica Neue', Helvetica, Arial-Unicode, Arial, Sans-serif">Created by Daniele Catalanotto</text><text x="0" y="120" fill="#000000" font-size="5px" font-weight="bold" font-family="'Helvetica Neue', Helvetica, Arial-Unicode, Arial, Sans-serif">from the Noun Project</text></svg>