<svg xmlns="http://www.w3.org/2000/svg" xmlns:xlink="http://www.w3.org/1999/xlink" version="1.1" x="0px" y="0px" viewBox="0 0 100 125" enable-background="new 0 0 100 100" xml:space="preserve"><g><path fill="#000000" d="M85.2,52.8c0-14.3-24.5-44-25.5-45.2c-0.6-0.7-1.7-0.7-2.3,0c-0.5,0.6-5.9,7.2-11.7,15.6   c-0.3-0.4-0.5-0.7-0.6-0.8c-0.6-0.7-1.7-0.7-2.3,0c-1,1.3-25.5,30.9-25.5,45.2c0,14.7,12,26.7,26.7,26.7c11.2,0,20.9-7,24.8-16.8   C78.4,73.4,85.2,63.9,85.2,52.8z M20.3,67.6C20.3,56,39,31.8,43.9,25.7c4.9,6.1,23.7,30.3,23.7,41.9c0,13-10.6,23.7-23.7,23.7   S20.3,80.6,20.3,67.6z M70.5,70.3c5.5-3.8,9.1-10.1,9.1-17.2c0-0.8-0.7-1.5-1.5-1.5s-1.5,0.7-1.5,1.5c0,5.3-2.3,10.1-6,13.3   c-1-11.9-16.6-32.8-22.9-40.8c4.5-6.5,8.8-12.1,10.9-14.7c4.9,6.1,23.7,30.3,23.7,41.9c0,8.9-5,16.7-12.3,20.7   C70.2,72.4,70.3,71.4,70.5,70.3z"/><path fill="#000000" d="M64.9,67.9c0-0.8-0.7-1.5-1.5-1.5s-1.5,0.7-1.5,1.5c0,9.9-8.1,18-18,18c-0.8,0-1.5,0.7-1.5,1.5   s0.7,1.5,1.5,1.5C55.5,88.8,64.9,79.4,64.9,67.9z"/></g><text x="0" y="115" fill="#000000" font-size="5px" font-weight="bold" font-family="'Helvetica Neue', Helvetica, Arial-Unicode, Arial, Sans-serif">Created by Nicole Macdonald</text><text x="0" y="120" fill="#000000" font-size="5px" font-weight="bold" font-family="'Helvetica Neue', Helvetica, Arial-Unicode, Arial, Sans-serif">from the Noun Project</text></svg>