<svg xmlns="http://www.w3.org/2000/svg" xmlns:xlink="http://www.w3.org/1999/xlink" version="1.1" x="0px" y="0px" viewBox="0 0 100 125" enable-background="new 0 0 100 100" xml:space="preserve"><path d="M50,25c1.4,0,2.5-1.1,2.5-2.5v-15C52.5,6.1,51.4,5,50,5s-2.5,1.1-2.5,2.5v15C47.5,23.9,48.6,25,50,25z"/><path d="M50,47.5c1.4,0,2.5-1.1,2.5-2.5V30c0-1.4-1.1-2.5-2.5-2.5s-2.5,1.1-2.5,2.5v15C47.5,46.4,48.6,47.5,50,47.5z"/><path d="M30,50c0,11,9,20,20,20s20-9,20-20c0-7.1-3.8-13.7-10-17.3c-1.2-0.7-2.7-0.3-3.4,0.9c-0.7,1.2-0.3,2.7,0.9,3.4  c4.6,2.7,7.5,7.6,7.5,13c0,8.3-6.7,15-15,15s-15-6.7-15-15c0-5.3,2.9-10.3,7.5-13c1.2-0.7,1.6-2.2,0.9-3.4c-0.7-1.2-2.2-1.6-3.4-0.9  C33.8,36.3,30,42.9,30,50z"/><path d="M47.5,77.5v15c0,1.4,1.1,2.5,2.5,2.5s2.5-1.1,2.5-2.5v-15c0-1.4-1.1-2.5-2.5-2.5S47.5,76.1,47.5,77.5z"/><path d="M34.1,27.4c0.5,0.8,1.3,1.3,2.2,1.3c0.4,0,0.9-0.1,1.2-0.3c1.2-0.7,1.6-2.2,0.9-3.4l-7.5-13c-0.7-1.2-2.2-1.6-3.4-0.9  c-1.2,0.7-1.6,2.2-0.9,3.4L34.1,27.4z"/><path d="M65.9,72.6c-0.7-1.2-2.2-1.6-3.4-0.9c-1.2,0.7-1.6,2.2-0.9,3.4l7.5,13c0.5,0.8,1.3,1.3,2.2,1.3c0.4,0,0.9-0.1,1.2-0.3  c1.2-0.7,1.6-2.2,0.9-3.4L65.9,72.6z"/><path d="M62.5,28.3c0.4,0.2,0.8,0.3,1.2,0.3c0.9,0,1.7-0.4,2.2-1.3l7.5-13c0.7-1.2,0.3-2.7-0.9-3.4c-1.2-0.7-2.7-0.3-3.4,0.9  l-7.5,13C60.9,26.1,61.3,27.7,62.5,28.3z"/><path d="M27.5,89c0.4,0.2,0.8,0.3,1.2,0.3c0.9,0,1.7-0.4,2.2-1.3l7.5-13c0.7-1.2,0.3-2.7-0.9-3.4c-1.2-0.7-2.7-0.3-3.4,0.9l-7.5,13  C25.9,86.8,26.3,88.3,27.5,89z"/><path d="M25,50c0-1.4-1.1-2.5-2.5-2.5h-15C6.1,47.5,5,48.6,5,50s1.1,2.5,2.5,2.5h15C23.9,52.5,25,51.4,25,50z"/><path d="M92.5,47.5h-15c-1.4,0-2.5,1.1-2.5,2.5s1.1,2.5,2.5,2.5h15c1.4,0,2.5-1.1,2.5-2.5S93.9,47.5,92.5,47.5z"/><path d="M28.3,62.5c-0.7-1.2-2.2-1.6-3.4-0.9l-13,7.5c-1.2,0.7-1.6,2.2-0.9,3.4c0.5,0.8,1.3,1.3,2.2,1.3c0.4,0,0.9-0.1,1.2-0.3  l13-7.5C28.6,65.2,29,63.7,28.3,62.5z"/><path d="M71.7,37.5c0.5,0.8,1.3,1.3,2.2,1.3c0.4,0,0.9-0.1,1.2-0.3l13-7.5c1.2-0.7,1.6-2.2,0.9-3.4c-0.7-1.2-2.2-1.6-3.4-0.9  l-13,7.5C71.4,34.8,71,36.3,71.7,37.5z"/><path d="M11.9,30.9l13,7.5c0.4,0.2,0.8,0.3,1.2,0.3c0.9,0,1.7-0.4,2.2-1.3c0.7-1.2,0.3-2.7-0.9-3.4l-13-7.5  c-1.2-0.7-2.7-0.3-3.4,0.9C10.3,28.7,10.7,30.2,11.9,30.9z"/><path d="M88.1,69.1l-13-7.5c-1.2-0.7-2.7-0.3-3.4,0.9c-0.7,1.2-0.3,2.7,0.9,3.4l13,7.5c0.4,0.2,0.8,0.3,1.2,0.3  c0.9,0,1.7-0.4,2.2-1.3C89.7,71.3,89.3,69.8,88.1,69.1z"/></svg>