<?xml version="1.0" encoding="utf-8"?><!DOCTYPE svg PUBLIC "-//W3C//DTD SVG 1.1//EN" "http://www.w3.org/Graphics/SVG/1.1/DTD/svg11.dtd"><svg version="1.1" xmlns="http://www.w3.org/2000/svg" xmlns:xlink="http://www.w3.org/1999/xlink" x="0px" y="0px" viewBox="8.762 0 82.476 125" enable-background="new 8.762 0 82.476 100" xml:space="preserve"><rect x="10.69" y="2.337" fill="none" width="78.621" height="95.325"/><path d="M19.949,60.811c-0.596,0.588-0.925,1.38-0.925,2.237c-0.01,0.847,0.323,1.653,0.925,2.263
	c1.203,1.221,3.312,1.205,4.505-0.01l4.002-4.014c0.592-0.571,0.929-1.364,0.935-2.21c0.007-0.863-0.322-1.673-0.935-2.281
	c-0.586-0.595-1.384-0.929-2.25-0.929c-0.845,0-1.648,0.327-2.25,0.929L19.949,60.811z M17.61,35.018h-5.673
	c-1.749,0-3.174,1.426-3.174,3.179c0,1.756,1.425,3.191,3.174,3.191h5.673c1.763,0,3.188-1.435,3.188-3.191
	C20.798,36.443,19.372,35.018,17.61,35.018 M28.457,19.703c0.612-0.608,0.941-1.417,0.935-2.282
	c-0.005-0.846-0.342-1.639-0.935-2.209l-4.002-4.015c-1.195-1.213-3.302-1.23-4.505-0.009c-0.603,0.612-0.935,1.417-0.925,2.265
	c0,0.856,0.33,1.649,0.925,2.234l4.008,4.016c0.602,0.602,1.404,0.928,2.25,0.928C27.072,20.631,27.87,20.298,28.457,19.703
	 M50.142,8.85V3.185C50.142,1.427,48.716,0,46.955,0c-1.749,0-3.175,1.425-3.175,3.185V8.85c0,1.757,1.426,3.182,3.175,3.182
	C48.716,12.033,50.142,10.607,50.142,8.85 M73.973,15.687c1.245-1.244,1.245-3.254,0-4.5c-1.203-1.212-3.306-1.204-4.5,0
	l-4.012,4.001c-0.602,0.592-0.93,1.396-0.939,2.241c0,0.856,0.332,1.657,0.909,2.234c0.59,0.608,1.42,0.966,2.281,0.966
	c0.854,0,1.658-0.339,2.251-0.936L73.973,15.687z M91.238,54.043c0-2.231-0.802-4.244-2.256-5.666
	c-1.424-1.393-3.404-2.141-5.551-2.089c-0.01,0-0.019,0-0.027,0l-12.62-0.001c-0.146,0-0.288-0.025-0.423-0.076
	c-0.332-0.124-1.572-0.804-1.572-1.88v-4.581h-0.028c0.026-0.404,0.053-0.808,0.064-1.212c0.005-0.146,0.009-0.291,0.009-0.437
	c0-0.262-0.013-0.523-0.021-0.784c-0.414-11.847-10.146-21.336-22.1-21.336c-12.201,0-22.104,9.909-22.104,22.12
	c0,0.048,0.003,0.097,0.003,0.146s-0.003,0.098-0.003,0.148c0,9.492,5.985,17.591,14.38,20.729c1.008-2.121,2.709-3.763,4.873-4.695
	c-7.153-1.269-12.697-7.222-13.358-14.562h0.031c-0.057-0.532-0.09-1.076-0.096-1.62c0.006-0.542,0.039-1.084,0.096-1.616h-0.031
	c0.745-8.292,7.722-14.817,16.21-14.817c8.73,0,15.868,6.888,16.278,15.504c0.015,0.26,0.021,0.521,0.021,0.785
	c0,0.144-0.002,0.289-0.006,0.432c-0.017,0.448-0.054,0.895-0.108,1.333h0.02v4.468c0,4.479,4.101,7.823,7.765,7.823h12.872
	c0.495,0,0.888,0.097,1.164,0.288c0.058,0.038,0.108,0.081,0.155,0.126c0.407,0.393,0.492,1.02,0.492,1.476
	c0,1.296-0.635,1.954-1.892,1.954H48.163c-0.31,0-0.614,0.019-0.912,0.05c-2.614,0.267-4.725,1.688-5.882,3.809
	c-0.624,1.145-0.972,2.487-0.972,3.965c0,2.231,0.801,4.243,2.256,5.667c1.424,1.392,3.404,2.139,5.549,2.086
	c0.009,0,0.019,0,0.028,0l12.619,0.002c0.146,0,0.287,0.024,0.423,0.076c0.332,0.122,1.574,0.804,1.574,1.881v2.616
	c0,0.508-0.316,0.965-0.794,1.142c-4.211,1.553-7.038,5.607-7.038,10.083v3.585h2.698c0.672,0,1.218,0.545,1.218,1.216v5.865
	c0,1.078,0.879,1.955,1.956,1.955c1.081,0,1.959-0.877,1.959-1.955V92.18c0-0.671,0.545-1.216,1.217-1.216h3.44
	c0.672,0,1.217,0.545,1.217,1.216v5.865c0,1.078,0.877,1.955,1.957,1.955s1.959-0.877,1.959-1.955V92.18
	c0-0.671,0.545-1.216,1.217-1.216h2.696v-3.585c0-4.475-2.827-8.526-7.036-10.081c-0.478-0.179-0.796-0.634-0.796-1.144v-2.616
	c0-4.479-4.099-7.825-7.765-7.825H48.078c-0.438,0-0.786-0.071-1.057-0.223c-0.096-0.055-0.186-0.119-0.266-0.2
	c-0.402-0.396-0.486-1.016-0.486-1.466c0-1.297,0.637-1.955,1.894-1.955h35.309C87.971,61.867,91.238,58.577,91.238,54.043"/><text x="8.762" y="115" fill="#000000" font-size="5px" font-weight="bold" font-family="'Helvetica Neue', Helvetica, Arial-Unicode, Arial, Sans-serif">Created by TrentoFuckingCity</text><text x="8.762" y="120" fill="#000000" font-size="5px" font-weight="bold" font-family="'Helvetica Neue', Helvetica, Arial-Unicode, Arial, Sans-serif">from the Noun Project</text></svg>