<svg xmlns="http://www.w3.org/2000/svg" xmlns:xlink="http://www.w3.org/1999/xlink" version="1.1" x="0px" y="0px" viewBox="0 0 72 90" enable-background="new 0 0 72 72" xml:space="preserve"><g><path fill="#000000" d="M35.5,15.8l-0.1-0.2l-6-5.5c-0.4-0.4-1.1-0.1-1.2,0.5L28,18.7l0.1,0.2C30.4,17.5,32.9,16.4,35.5,15.8z"/><path fill="#000000" d="M54.3,18.8l0.1-0.2L54,10.4c0-0.6-0.7-0.9-1.2-0.5l-6,5.6l-0.1,0.2C49.5,16.3,52,17.4,54.3,18.8z"/><path fill="#000000" d="M62.2,26.6c1.4,2.3,2.5,4.8,3.1,7.4l0.2-0.1l5.5-6c0.4-0.4,0.1-1.1-0.5-1.2l-8.2-0.2L62.2,26.6z"/><path fill="#000000" d="M65.5,45.3c-0.6,2.7-1.6,5.2-3,7.5l0.2,0.1l8.2-0.4c0.6,0,0.9-0.7,0.5-1.2l-5.6-6L65.5,45.3z"/><path fill="#000000" d="M47.1,63.9l0.1,0.2l6,5.5c0.4,0.4,1.1,0.1,1.2-0.5l0.2-8.2l-0.1-0.2C52.3,62.2,49.8,63.3,47.1,63.9z"/><path fill="#000000" d="M20.4,53.1c-1.4-2.3-2.5-4.8-3.1-7.4L17,45.8l-5.5,6c-0.4,0.4-0.1,1.1,0.5,1.2l8.2,0.2L20.4,53.1z"/><path fill="#000000" d="M28.4,61l-0.1,0.2l0.4,8.2c0,0.6,0.7,0.9,1.2,0.5l6-5.6l0.1-0.2C33.2,63.4,30.7,62.4,28.4,61z"/><path fill="#000000" d="M42.7,21.6c-10-0.7-18.5,6.6-19.6,16.1c-0.1,0.5-0.4,1-0.9,1.1c-0.8,0.3-1.6,0.5-2.4,0.4   c-1.3,0-2.6-0.6-4.1-1.5c-1.4-0.8-2.8-1.8-3.6-3c-0.8-1.4-0.8-3.1-0.6-5c0-0.3,0.3-0.5,0.6-0.5h0.2c3.9,0,7.1-3.2,7.1-7.1v-8.3   c0-0.4-0.3-0.8-0.8-0.8H17c-0.4,0-0.8-0.3-0.8-0.8V3.8c0-0.8-0.6-1.6-1.4-1.8c-1.1-0.2-2,0.6-2,1.7v8.7c0,0.4-0.3,0.8-0.8,0.8H7.9   c-0.4,0-0.8-0.3-0.8-0.8l0-8.6c0-0.8-0.6-1.6-1.4-1.8c-1.1-0.2-2,0.6-2,1.7v8.7c0,0.4-0.3,0.8-0.8,0.8H1.3c-0.4,0-0.8,0.3-0.8,0.8   v8.3c0,3.9,3.2,7.1,7.1,7.1l0,0c0.3,0,0.6,0.3,0.6,0.6C8,32.1,8,34.4,9.2,36.5c1.1,2,3,3.2,4.8,4.3c1.7,1,3.6,1.9,5.7,2   c0.1,0,0.1,0,0.2,0c0.7,0,1.3-0.1,1.9-0.2c0.7-0.2,1.4,0.3,1.5,1c1.7,8.4,9.1,14.7,17.9,14.7c10.5,0,18.9-8.8,18.3-19.5   C59,29.7,51.7,22.3,42.7,21.6z"/></g><text x="0" y="87" fill="#000000" font-size="5px" font-weight="bold" font-family="'Helvetica Neue', Helvetica, Arial-Unicode, Arial, Sans-serif">Created by Creative Stall</text><text x="0" y="92" fill="#000000" font-size="5px" font-weight="bold" font-family="'Helvetica Neue', Helvetica, Arial-Unicode, Arial, Sans-serif">from the Noun Project</text></svg>