<svg xmlns="http://www.w3.org/2000/svg" xmlns:xlink="http://www.w3.org/1999/xlink" version="1.1" x="0px" y="0px" viewBox="0 0 43.43 74.26249999999999" enable-background="new 0 0 43.43 59.41" xml:space="preserve"><path d="M43.25,8.49c-3.01-4.34-5.8-6.28-9.05-6.28c-2.95,0-6.12,1.58-9.98,3.95l-6.01,3.69l-5.76-9.37  c-0.14-0.23-0.38-0.4-0.65-0.46c-0.27-0.06-0.55,0-0.77,0.16c-8.38,5.8-7.48,10.55-2.29,19.01l3.66,5.96L0.48,32.47  c-0.23,0.14-0.4,0.38-0.46,0.65c-0.06,0.27,0,0.55,0.16,0.78c3.05,4.41,5.76,6.29,9.04,6.29c2.94,0,6.1-1.57,9.94-3.93l0.26-0.16  v19.32c0,1.99,1.3,4,3.79,4c0.01,0,0.03,0,0.04,0c3.17-0.12,3.17-2.84,3.17-4V34.6l4.5,7.34c0.14,0.23,0.38,0.4,0.65,0.46  c0.07,0.01,0.14,0.02,0.21,0.02c0.2,0,0.4-0.06,0.57-0.18c6.81-4.72,9.13-8.98,2.86-19.18l-3.74-6.09l11.48-7.05  c0.23-0.14,0.4-0.38,0.46-0.65C43.46,9,43.41,8.72,43.25,8.49z M24.81,18.68c0.11,0.13,0.21,0.27,0.3,0.41c0,0,0,0.01,0.01,0.01  c0.04,0.06,0.07,0.13,0.09,0.2l0.07,0.16c0,0,0,0,0,0c0.28,0.6,0.38,1.24,0.32,1.86c0,0.01,0,0.03-0.01,0.04  c-0.02,0.19-0.06,0.37-0.11,0.55c-0.01,0.04-0.03,0.08-0.04,0.12c-0.05,0.16-0.11,0.32-0.19,0.47c-0.02,0.05-0.05,0.09-0.08,0.14  c-0.08,0.14-0.16,0.28-0.25,0.4c-0.05,0.06-0.11,0.12-0.16,0.18c-0.09,0.1-0.17,0.21-0.27,0.3c-0.16,0.15-0.34,0.28-0.53,0.4  c-0.14,0.08-0.28,0.16-0.43,0.22c-0.44,0.19-0.92,0.29-1.4,0.29l-0.03,0c-0.06,0-0.12-0.01-0.19-0.01  c-0.28-0.02-0.55-0.06-0.81-0.14c0,0,0,0,0,0c-0.54-0.16-1.03-0.45-1.43-0.85c0,0-0.01-0.01-0.01-0.01  c-0.2-0.19-0.37-0.41-0.52-0.66c-0.04-0.06-0.07-0.13-0.1-0.2l-0.07-0.16c0,0,0,0,0,0c-0.28-0.6-0.38-1.24-0.32-1.85  c0-0.02,0.01-0.04,0.01-0.07c0.02-0.18,0.06-0.35,0.11-0.53c0.01-0.05,0.03-0.1,0.05-0.15c0.05-0.14,0.1-0.29,0.17-0.42  c0.04-0.08,0.08-0.15,0.13-0.22c0.06-0.11,0.12-0.22,0.2-0.32c0.07-0.1,0.16-0.19,0.24-0.28c0.06-0.07,0.12-0.14,0.19-0.21  c0.16-0.15,0.34-0.29,0.54-0.41c0,0,0.01,0,0.01,0c0.3-0.18,0.65-0.32,1.06-0.41c0.01,0,0.01-0.01,0.02-0.01c0.01,0,0.02,0,0.02,0  c1.24-0.27,2.53,0.18,3.35,1.1C24.78,18.65,24.8,18.66,24.81,18.68z M10.45,18.14c-4.76-7.75-5.34-11.11,0.86-15.7l8.35,13.59  c-0.14,0.07-0.27,0.14-0.39,0.22c-0.3,0.18-0.57,0.39-0.81,0.62c-0.08,0.08-0.15,0.16-0.23,0.24c-0.15,0.16-0.3,0.32-0.43,0.5  c-0.08,0.11-0.15,0.22-0.23,0.33c-0.1,0.16-0.2,0.33-0.29,0.5c-0.07,0.13-0.13,0.26-0.19,0.39c-0.06,0.16-0.11,0.32-0.16,0.48  c-0.05,0.16-0.1,0.31-0.14,0.47c-0.01,0.07-0.02,0.14-0.03,0.21c-0.09,0.51-0.11,1.02-0.06,1.54c0,0.01,0,0.01,0,0.02  c0.03,0.27,0.09,0.54,0.16,0.8c0.01,0.02,0.01,0.05,0.01,0.07l-2.75,1.69L10.45,18.14z M18.12,34.55c-4.21,2.58-6.79,3.64-8.9,3.64  c-2.35,0-4.41-1.38-6.78-4.57l11.87-7.29c0,0,0,0,0,0l3.43-2.11c0.01,0.02,0.03,0.03,0.05,0.05c0.2,0.26,0.42,0.5,0.66,0.72  c0.02,0.02,0.04,0.03,0.06,0.05c0.25,0.22,0.52,0.42,0.81,0.59c0,0,0.01,0.01,0.01,0.01c0.3,0.18,0.62,0.33,0.95,0.45  c0.01,0,0.02,0.01,0.03,0.01c0.32,0.11,0.66,0.2,1,0.25c0.01,0,0.01,0,0.02,0l2.78,4.52l-1.8,1.11l-2.33,1.26  c-0.18,0.1-0.32,0.25-0.41,0.42L18.12,34.55z M24.43,55.41c0,1.63-0.2,1.96-1.23,2c-1.72-0.01-1.77-1.8-1.77-2V34.87l1.87-1.15  l1.13-0.61V55.41z M32.07,39.98l-8.44-13.75c0,0,0,0,0,0c0.23-0.06,0.45-0.14,0.66-0.24c0.02-0.01,0.03-0.01,0.05-0.02  c0.12-0.05,0.24-0.12,0.36-0.19c0.1-0.06,0.21-0.1,0.31-0.16c0.29-0.18,0.55-0.38,0.8-0.6c0.09-0.08,0.17-0.18,0.26-0.27  c0.14-0.14,0.28-0.29,0.4-0.45c0.09-0.12,0.18-0.25,0.26-0.38c0.09-0.14,0.18-0.28,0.25-0.43c0.08-0.15,0.15-0.29,0.22-0.45  c0.06-0.14,0.1-0.29,0.15-0.43c0.04-0.14,0.11-0.26,0.14-0.4c0.15-0.61,0.17-1.23,0.1-1.84c0-0.01,0-0.01,0-0.02  c-0.03-0.28-0.09-0.56-0.16-0.83c0-0.01,0-0.03-0.01-0.04l2.41-1.37l3.68,5.99C38.06,31.5,38.58,35.16,32.07,39.98z M26.55,17.64  c-0.02-0.03-0.05-0.06-0.07-0.09c-0.06-0.08-0.13-0.15-0.19-0.23c-0.08-0.09-0.16-0.18-0.24-0.26c-0.08-0.08-0.16-0.16-0.25-0.24  c-0.07-0.07-0.15-0.13-0.23-0.19c-0.1-0.08-0.21-0.16-0.32-0.24c-0.06-0.04-0.12-0.08-0.18-0.12c-0.13-0.08-0.27-0.16-0.41-0.24  c-0.03-0.02-0.06-0.03-0.09-0.04c-0.74-0.36-1.56-0.57-2.42-0.57c-0.14,0-0.28,0.02-0.42,0.03l-2.41-3.93l5.96-3.66  c4.22-2.59,6.81-3.65,8.94-3.65c2.36,0,4.42,1.37,6.79,4.56L26.55,17.64z"/><text x="0" y="74.41" fill="#000000" font-size="5px" font-weight="bold" font-family="'Helvetica Neue', Helvetica, Arial-Unicode, Arial, Sans-serif">Created by Oliviu Stoian</text><text x="0" y="79.41" fill="#000000" font-size="5px" font-weight="bold" font-family="'Helvetica Neue', Helvetica, Arial-Unicode, Arial, Sans-serif">from the Noun Project</text></svg>