<svg xmlns="http://www.w3.org/2000/svg" xmlns:xlink="http://www.w3.org/1999/xlink" version="1.1" x="0px" y="0px" viewBox="0 0 48 60" enable-background="new 0 0 48 48" xml:space="preserve"><g><path d="M38.284,38.902H7.762c-0.552,0-1-0.447-1-1s0.448-1,1-1h30.522c4.255,0,7.716-3.867,7.716-8.62   c0-4.754-3.461-8.622-7.716-8.622c-1.541,0-3.028,0.508-4.303,1.469c-0.329,0.249-0.776,0.269-1.127,0.053s-0.533-0.625-0.46-1.029   c0.088-0.486,0.133-0.989,0.133-1.493c0-4.17-3.031-7.563-6.758-7.563c-3.726,0-6.756,3.393-6.756,7.563   c0.011,0.495-0.336,1.029-0.824,1.113c-1.551,0.268-2.977,1.05-4.124,2.261c-0.38,0.401-1.012,0.419-1.414,0.039   c-0.401-0.379-0.418-1.013-0.039-1.414c1.245-1.315,2.761-2.231,4.422-2.678c0.319-4.958,4.115-8.885,8.734-8.885   c4.775,0,8.671,4.195,8.757,9.388c1.181-0.543,2.453-0.825,3.758-0.825c5.357,0,9.716,4.765,9.716,10.622   C48,34.138,43.642,38.902,38.284,38.902z"/><path d="M18.087,27.316H6.695c-0.552,0-1-0.447-1-1s0.448-1,1-1h11.392c0.552,0,1,0.447,1,1S18.639,27.316,18.087,27.316z"/><path d="M17.286,31.261H3.847c-0.552,0-1-0.447-1-1s0.448-1,1-1h13.439c0.552,0,1,0.447,1,1S17.838,31.261,17.286,31.261z"/><path d="M17.73,35.289H1c-0.552,0-1-0.447-1-1s0.448-1,1-1h16.73c0.552,0,1,0.447,1,1S18.282,35.289,17.73,35.289z"/></g></svg>