<svg xmlns="http://www.w3.org/2000/svg" xmlns:xlink="http://www.w3.org/1999/xlink" version="1.1" x="0px" y="0px" viewBox="0 0 100 125" enable-background="new 0 0 100 100" xml:space="preserve"><path d="M88.773,77.766H87.96v1.424H74.224v-1.424h-0.814v1.424H59.675v-1.424h-0.815v1.424H45.126v-1.424h-0.816v1.424H30.575  v-1.424h-0.813v1.424h-4.334c0.757-1.38,1.19-2.962,1.19-4.644c0-2.749-1.152-5.297-3.106-7.101l12.943-7.419  c0.323,0.233,0.714,0.373,1.142,0.373c0.435,0,0.83-0.145,1.156-0.381l13.519,7.627c-0.002,0.041-0.011,0.079-0.011,0.118  c0,1.088,0.881,1.969,1.967,1.969c1.085,0,1.967-0.881,1.967-1.969c0-0.52-0.206-0.987-0.533-1.34l6.359-15.629  c0.636-0.045,1.191-0.389,1.516-0.896l6.11,1.646l4.049,8.73c-0.363,0.359-0.592,0.855-0.592,1.405c0,1.088,0.882,1.969,1.967,1.969  c1.086,0,1.968-0.881,1.968-1.969c0-0.524-0.211-1.001-0.546-1.354l1.89-6.43l6.854,1.847c0.211,0.859,0.981,1.5,1.905,1.5  c1.088,0,1.969-0.881,1.969-1.968c0-0.455-0.16-0.866-0.421-1.2l5.272-8.911l-0.45-2.434l-6.265,10.589  c-0.037-0.002-0.07-0.011-0.105-0.011c-0.663,0-1.245,0.329-1.602,0.831l-6.702-1.805l7.776-26.46L85.5,24.196l-8.22,27.719  l-6.482-1.746L62.51,32.294c0.188-0.301,0.303-0.656,0.303-1.039c0-1.087-0.881-1.969-1.969-1.969c-1.086,0-1.965,0.881-1.965,1.969  c0,0.486,0.18,0.924,0.475,1.267L50.396,51.35c-0.038-0.001-0.071-0.01-0.109-0.01c-0.308,0-0.594,0.077-0.854,0.202l-9.987-9.469  c0.069-0.201,0.116-0.412,0.116-0.635c0-1.088-0.883-1.969-1.97-1.969c-1.086,0-1.966,0.881-1.966,1.969  c0,0.337,0.092,0.649,0.242,0.925L22.739,59.655V22.972c0-3.205-2.607-5.811-5.809-5.811c-3.205,0-5.809,2.607-5.809,5.811v43.829  c-2.422,1.81-3.873,4.652-3.873,7.746c0,5.339,4.345,9.682,9.683,9.682c3.207,0,6.046-1.572,7.809-3.98h5.019v1.182h0.814v-1.182  h13.736v1.182h0.816v-1.182h13.732v1.182h0.816v-1.182h13.736v1.182h0.814v-1.182H87.96v1.182h0.813v-1.182h5.187v-1.059h-5.187  V77.766z M76.818,53.477l-1.752,5.9l-3.375-7.28L76.818,53.477z M22.74,62.072l0.133,0.101L37.16,43.355  c0.137,0.03,0.283,0.051,0.43,0.051c0.262,0,0.511-0.054,0.739-0.146l10.063,9.543c-0.043,0.161-0.073,0.33-0.073,0.507  c0,1.084,0.882,1.966,1.967,1.966c1.086,0,1.968-0.882,1.968-1.966c0-0.454-0.16-0.867-0.418-1.199l8.993-18.889  c0,0,0.008,0.001,0.015,0.001c0.1,0,0.194-0.014,0.289-0.029l7.616,16.426l-4.999-1.347c-0.248-0.806-0.988-1.396-1.874-1.396  c-1.085,0-1.968,0.88-1.968,1.967c0,0.545,0.222,1.035,0.578,1.393l-6.337,15.569c-0.421,0.015-0.805,0.164-1.118,0.405  l-13.488-7.609c0.006-0.056,0.019-0.109,0.019-0.166c0-1.089-0.883-1.969-1.97-1.969c-1.086,0-1.966,0.88-1.966,1.969  c0,0.06,0.013,0.117,0.016,0.178L22.74,66.009V62.072z M16.933,81.646c-3.921,0-7.102-3.178-7.102-7.101  c0-2.758,1.576-5.146,3.876-6.322V22.972c0-1.783,1.442-3.228,3.226-3.228c1.782,0,3.227,1.446,3.227,3.229v45.25  c2.297,1.175,3.874,3.563,3.874,6.322C24.033,78.469,20.854,81.646,16.933,81.646z"/><path d="M22.225,74.548c0,2.924-2.368,5.294-5.292,5.294c-2.924,0-5.293-2.37-5.293-5.294c0-2.277,1.44-4.214,3.458-4.959V43.054  h3.667v26.535C20.785,70.333,22.225,72.271,22.225,74.548z"/><text x="0" y="115" fill="#000000" font-size="5px" font-weight="bold" font-family="'Helvetica Neue', Helvetica, Arial-Unicode, Arial, Sans-serif">Created by seuk eumeu</text><text x="0" y="120" fill="#000000" font-size="5px" font-weight="bold" font-family="'Helvetica Neue', Helvetica, Arial-Unicode, Arial, Sans-serif">from the Noun Project</text></svg>